<?xml version="1.0" encoding="utf-8"?>
<!-- Generator: Adobe Illustrator 16.0.0, SVG Export Plug-In . SVG Version: 6.00 Build 0)  -->
<!DOCTYPE svg PUBLIC "-//W3C//DTD SVG 1.1//EN" "http://www.w3.org/Graphics/SVG/1.1/DTD/svg11.dtd">
<svg version="1.1" id="Layer_1" xmlns="http://www.w3.org/2000/svg" xmlns:xlink="http://www.w3.org/1999/xlink" x="0px" y="0px"
	 width="100px" height="100px" viewBox="0 0 512 512" enable-background="new 0 0 512 512" xml:space="preserve">
<g>
	<g>
		<g>
			<path fill="#A3D5E0" d="M256.003,7.909C118.983,7.909,7.909,118.972,7.909,256c0,137.012,111.074,248.091,248.094,248.091
				c137.012,0,248.088-111.079,248.088-248.091C504.091,118.972,393.015,7.909,256.003,7.909z"/>
		</g>
	</g>
	<g>
		<g>
			<g>
				<rect x="142.369" y="107.575" fill="#E8DFC5" width="226.576" height="22.691"/>
			</g>
		</g>
		<g>
			<g>
				<rect x="147.73" y="115.735" fill="#DDD5BF" width="215.025" height="72.234"/>
			</g>
		</g>
		<g>
			<g>
				<path fill="#EFE6CA" d="M369.172,107.492c0,0-55.118,18.792-113.485,18.792c-58.369,0-113.834-18.792-113.834-18.792
					l-13.046,99.269l122.158,30.983h9.473l122.374-31.825L369.172,107.492z"/>
			</g>
		</g>
		<g>
			<g>
				<path fill="#E2D8BF" d="M183.002,133.358c-9.12,51.405-51.234,50.077-51.234,50.077l-0.832,7.296
					c55.881-4.643,58.535-56.211,58.535-56.211L183.002,133.358z"/>
			</g>
		</g>
		<g>
			<g>
				<path fill="#E2D8BF" d="M379.496,183.436c0,0-42.116,1.328-51.236-50.077l-6.468,1.162c0,0,2.653,51.568,58.534,56.211
					L379.496,183.436z"/>
			</g>
		</g>
		<g>
			<g>
				<polygon fill="#F9EDCD" points="269.393,139.992 267.184,210.741 259.445,222.902 270.057,212.29 272.047,139.992 				"/>
			</g>
		</g>
		<g>
			<g>
				<polygon fill="#F9EDCD" points="247.505,139.331 244.52,139.331 250.379,222.015 				"/>
			</g>
		</g>
		<g>
			<g>
				<path fill="#E8DFC5" d="M369.172,107.492c0,0-55.118,18.792-113.485,18.792c-58.369,0-113.834-18.792-113.834-18.792
					l-1.974,15.013c12.002,3.779,62.75,18.697,115.802,18.697c53.218,0,103.837-15.014,115.565-18.732L369.172,107.492z"/>
			</g>
		</g>
		<g>
			<g>
				<path fill="#F9EDCD" d="M370.763,119.376c-8,2.606-60.492,19.041-115.075,19.041c-54.498,0-107.182-16.452-115.354-19.094
					l-0.455,3.182c12.002,3.779,62.75,18.697,115.802,18.697c53.218,0,103.837-15.014,115.565-18.732L370.763,119.376z"/>
			</g>
		</g>
		<g>
			<g>
				<g>
					<path fill="#DDD5BF" d="M197.459,120.522c0,0-2.07-1.014-4.663-1.357c-2.588-0.346-5.538-0.332-5.538-0.332
						s-3.924,9.221,0.813,22.682c0,0,2.485,0.783,4.548,1.133c2.064,0.346,5.309,0.605,5.309,0.605S190.924,128.153,197.459,120.522
						z"/>
				</g>
			</g>
			<g>
				<g>
					<path fill="#F9EDCD" d="M195.656,120.4c0,0-1.157-0.97-3.037-1.188c-1.878-0.223-4.035-0.075-4.035-0.075
						s-3.152,8.813,0.43,21.833c0,0,1.781,0.659,3.272,0.907c1.494,0.251,3.544,0.409,3.544,0.409S190.52,128.278,195.656,120.4z"/>
				</g>
			</g>
		</g>
		<g>
			<g>
				<g>
					<path fill="#EFE6CA" d="M369.172,107.492c0,0-55.118,18.792-113.485,18.792c-2.068,0-4.134-0.023-6.19-0.068
						c0,0-4.646,2.996-4.646,7.645c0,4.641,4.646,7.266,4.646,7.266c2.059,0.049,4.124-2.709,6.191-2.709
						c54.583,0,107.075-16.435,115.075-19.041l0.483,3.094L369.172,107.492z"/>
				</g>
			</g>
			<g>
				<g>
					<path fill="#F9EDCD" d="M370.763,119.376c-8,2.606-60.492,19.041-115.075,19.041c-2.067,0-4.133-0.035-6.191-0.081
						l-3.124-0.054c1.463,1.897,3.124,2.844,3.124,2.844c2.057,0.045,4.117,0.076,6.185,0.076
						c53.218,0,103.837-15.014,115.565-18.732L370.763,119.376z"/>
				</g>
			</g>
		</g>
		<g>
			<g>
				<path fill="#B9BEC1" d="M258.615,129.549c-2.748,0-4.975,2.222-4.975,4.972c0,2.748,2.227,4.973,4.975,4.973
					s4.974-2.225,4.974-4.973C263.589,131.771,261.363,129.549,258.615,129.549z"/>
			</g>
		</g>
		<g>
			<g>
				<g>
					<path fill="#DDD5BF" d="M324.003,118.833c0,0-2.946-0.014-5.537,0.332c-2.592,0.344-4.661,1.357-4.661,1.357
						c6.534,7.631-0.471,22.73-0.471,22.73s3.244-0.26,5.309-0.605c2.062-0.35,4.548-1.133,4.548-1.133
						C327.928,128.054,324.003,118.833,324.003,118.833z"/>
				</g>
			</g>
			<g>
				<g>
					<path fill="#F9EDCD" d="M322.678,119.137c0,0-2.156-0.147-4.035,0.075c-1.88,0.219-3.037,1.188-3.037,1.188
						c5.137,7.878-0.174,21.886-0.174,21.886s2.051-0.158,3.544-0.409c1.491-0.248,3.271-0.907,3.271-0.907
						C325.827,127.95,322.678,119.137,322.678,119.137z"/>
				</g>
			</g>
		</g>
		<g>
			<g>
				<g>
					<path fill="#EFE6CA" d="M383.014,205.438l-124.868,19.737l12.145,161.307c0,0,44.793,18.026,75.805,18.026
						s58.046-15.903,58.046-15.903L383.014,205.438z"/>
				</g>
			</g>
			<g>
				<g>
					<g>
						<path fill="#E2D8BF" d="M389.828,268.534l-3.577-1.889l-38.964,1.491l10.734,95.42c0,0,27.129,6.032,38.436,4.296
							c1.584-0.244,8.529-1.072,10.069-1.513L389.828,268.534z"/>
					</g>
				</g>
				<g>
					<g>
						<path fill="#EFE6CA" d="M390.225,266.546l-5.365-2.385l-35.982,2.385l13.915,92.637c0,0,25.737,5.637,37.044,3.898
							c1.584-0.244,4.355-0.277,5.895-0.717L390.225,266.546z"/>
					</g>
				</g>
				<g>
					<g>
						<path fill="#E2D8BF" d="M348.082,268.137c0,6.917,11.928,16.698,28.327,16.997c11.526,0.209,13.419-10.08,13.419-16.997
							H348.082z"/>
					</g>
				</g>
			</g>
		</g>
		<g>
			<g>
				<g>
					<path fill="#EFE6CA" d="M128.986,205.438l-21.127,183.167c0,0,27.035,15.903,58.046,15.903
						c31.012,0,75.806-18.026,75.806-18.026l12.144-161.307L128.986,205.438z"/>
				</g>
			</g>
			<g>
				<g>
					<g>
						<path fill="#E2D8BF" d="M125.749,266.646l-3.577,1.889l-16.698,97.806c1.54,0.44,8.485,1.269,10.069,1.513
							c11.307,1.736,38.437-4.296,38.437-4.296l10.733-95.42L125.749,266.646z"/>
					</g>
				</g>
				<g>
					<g>
						<path fill="#EFE6CA" d="M127.141,264.161l-5.365,2.385l-15.506,95.818c1.539,0.439,4.311,0.473,5.895,0.717
							c11.307,1.738,37.044-3.898,37.044-3.898l13.915-92.637L127.141,264.161z"/>
					</g>
				</g>
				<g>
					<g>
						<path fill="#E2D8BF" d="M122.172,268.137c0,6.917,1.893,17.206,13.419,16.997c16.4-0.299,28.327-10.08,28.327-16.997H122.172z
							"/>
					</g>
				</g>
			</g>
		</g>
	</g>
</g>
</svg>
