<?xml version="1.0" encoding="utf-8"?>
<!-- Generator: Adobe Illustrator 16.0.0, SVG Export Plug-In . SVG Version: 6.00 Build 0)  -->
<!DOCTYPE svg PUBLIC "-//W3C//DTD SVG 1.1//EN" "http://www.w3.org/Graphics/SVG/1.1/DTD/svg11.dtd">
<svg version="1.1" id="Layer_1" xmlns="http://www.w3.org/2000/svg" xmlns:xlink="http://www.w3.org/1999/xlink" x="0px" y="0px"
	 width="100px" height="100px" viewBox="0 0 512 512" enable-background="new 0 0 512 512" xml:space="preserve">
<g>
	<g>
		<g>
			<path fill="#EA4949" d="M257.46,9.651C120.44,9.651,9.366,120.714,9.366,257.742c0,137.012,111.074,248.09,248.094,248.09
				c137.012,0,248.089-111.078,248.089-248.09C505.549,120.714,394.472,9.651,257.46,9.651z"/>
		</g>
	</g>
	<g>
		<g>
			<g>
				<g>
					<path fill="#EDC92F" d="M392.557,392.668l-30.409-161.506l-24.438-145.35c-0.731-3.121-2.378-5.135-4.193-5.135H181.383
						c-1.816,0-3.461,2.014-4.193,5.135l-24.413,145.243l-30.583,162.289c-0.582,2.66-0.456,5.732,0.334,8.165
						c0.789,2.436,2.138,3.902,3.584,3.902c0,0,61.947,36.125,131.735,36.125c69.786,0,130.941-36.125,130.941-36.125h0.019
						c2.361,0,4.277-3.851,4.277-8.6C393.084,395.311,392.893,393.896,392.557,392.668z"/>
				</g>
			</g>
			<g>
				<g>
					<path fill="#EDC92F" d="M175.957,68.323v16.866c0,2.494,2.02,4.514,4.512,4.514h150.246c2.494,0,4.514-2.02,4.514-4.514V68.323
						C335.229,65.832,175.957,65.832,175.957,68.323z"/>
				</g>
			</g>
			<g>
				<g>
					<path fill="#EDC92F" d="M337.709,85.813c-0.731-3.121-159.787-3.121-160.52,0l-24.413,145.243
						c24.14,10.474,63.169,23.849,105.064,23.849c41.757,0,80.374-13.289,104.307-23.742L337.709,85.813z"/>
				</g>
			</g>
		</g>
		<g>
			<g>
				<g>
					<polygon fill="#AA1322" points="341.156,99.628 174.58,99.628 172.422,111.359 342.172,111.359 					"/>
				</g>
			</g>
			<g>
				<g>
					<g>
						<g>
							<path fill="#F6A2A3" d="M245.801,94.799l-29.194-9.27c-3.071,0-5.56,2.492-5.56,5.562v29.194c0,3.07,2.488,5.559,5.56,5.559
								l29.194-9.266c3.069,0,5.56-2.49,5.56-5.561v-10.658C251.36,97.288,248.87,94.799,245.801,94.799z"/>
						</g>
					</g>
					<g>
						<g>
							<path fill="#F6A2A3" d="M291.213,85.529l-29.194,9.27c-3.071,0-5.561,2.489-5.561,5.561v10.658
								c0,3.07,2.489,5.561,5.561,5.561l29.194,9.266c3.069,0,5.561-2.488,5.561-5.559V91.091
								C296.773,88.021,294.282,85.529,291.213,85.529z"/>
						</g>
					</g>
					<g>
						<g>
							<path fill="#E84849" d="M260.875,93.408h-13.004c-1.195,0-2.307,0.343-3.255,0.924c0.901,4.857,1.462,13.426-0.938,22.934
								c0.344,0.315,0.724,0.595,1.136,0.824c0.902,0.508,1.945,0.804,3.057,0.804h13.004c3.445,0,6.241-2.794,6.241-6.24V99.648
								C267.116,96.203,264.32,93.408,260.875,93.408z"/>
						</g>
					</g>
					<g>
						<g>
							<path fill="#E84849" d="M280.567,103.119l-11.624-1.67c-0.256,0.04-0.471,0.435-0.48,0.886l-0.172,6.979
								c-0.011,0.448,0.186,0.78,0.44,0.741l11.797-5.309c0.253-0.039,0.47-0.437,0.479-0.885
								C281.02,103.412,280.822,103.081,280.567,103.119z"/>
						</g>
					</g>
					<g>
						<g>
							<path fill="#E84849" d="M243.375,102.672c-0.012-0.449-0.229-0.846-0.48-0.887l-11.627,1.671
								c-0.253-0.039-0.451,0.294-0.439,0.743c0.01,0.449,0.226,0.848,0.479,0.886l11.797,5.309c0.256,0.04,0.453-0.292,0.44-0.744
								L243.375,102.672z"/>
						</g>
					</g>
				</g>
			</g>
			<g>
				<g>
					<path fill="#EDC92F" d="M123.648,404.264c0,0,19.55,24.084,38.49,30.962c18.94,6.882,31.16-180.044,31.16-180.044
						L123.648,404.264z"/>
				</g>
			</g>
			<g>
				<g>
					<path fill="#EDC92F" d="M305.065,266.035l-39.073,184.221c0,0,22.716,10.423,41.791,5.016
						C326.86,449.865,305.065,266.035,305.065,266.035z"/>
				</g>
			</g>
			<g>
				<g>
					<path fill="#EDC92F" d="M355.271,257.487l-45.559,178.896c0,0,22.295,13.254,41.518,10.257
						C370.457,443.646,355.271,257.487,355.271,257.487z"/>
				</g>
			</g>
			<g>
				<g>
					<path fill="#EDC92F" d="M356.492,262.242l-0.051,168.851c0,0,19.722-5.161,33.912-20.702
						C404.543,394.852,356.492,262.242,356.492,262.242z"/>
				</g>
			</g>
			<g>
				<g>
					<path fill="#EDC92F" d="M229.586,255.355l-62.104,174.54c0,0,22.292,20.198,42.676,22.501
						C230.544,454.695,229.586,255.355,229.586,255.355z"/>
				</g>
			</g>
			<g>
				<g>
					<path fill="#EDC92F" d="M265.086,262.063l-50.017,185.546c0,0,24.61,14.889,45.88,11.775
						C282.217,456.275,265.086,262.063,265.086,262.063z"/>
				</g>
			</g>
			<g>
				<g>
					<path fill="#E0BE2D" d="M198.537,220.878l-37.923,213.755c0.509,0.209,1.018,0.411,1.524,0.593
						c1.898,0.695,3.728-0.593,5.486-3.413l-0.144-1.917L198.537,220.878z"/>
				</g>
			</g>
			<g>
				<g>
					<g>
						<path fill="#EDC92F" d="M229.586,255.355l-62.104,174.54c0,0,21.751,19.698,41.929,22.396l12.91-137.473l-6.849,132.973
							C230.367,418.133,229.586,255.355,229.586,255.355z"/>
					</g>
				</g>
				<g>
					<g>
						<path fill="#E0BE2D" d="M209.41,452.292c0.249,0.032,0.5,0.073,0.747,0.104c1.965,0.22,3.728-1.446,5.314-4.604
							l11.363-224.191L209.41,452.292z"/>
					</g>
				</g>
			</g>
			<g>
				<g>
					<path fill="#E0BE2D" d="M256.458,227.685l2.653,231.921c0.614-0.062,1.227-0.131,1.838-0.221
						c2.448-0.358,4.382-3.273,5.896-8.107L256.458,227.685z"/>
				</g>
			</g>
			<g>
				<g>
					<path fill="#E0BE2D" d="M290.801,227.685l18.69,226.525c2.476-2.47,4.075-8.694,5.017-17.433L290.801,227.685z"/>
				</g>
			</g>
			<g>
				<g>
					<path fill="#E0BE2D" d="M327.567,224.962l11.446,96.365l12.188,125.319c0.008-0.003,0.02-0.003,0.029-0.007
						c3.371-0.522,5.682-6.692,7.203-16.483L327.567,224.962z"/>
				</g>
			</g>
		</g>
	</g>
</g>
</svg>
