<?xml version="1.0" encoding="utf-8"?>
<!-- Generator: Adobe Illustrator 16.0.0, SVG Export Plug-In . SVG Version: 6.00 Build 0)  -->
<!DOCTYPE svg PUBLIC "-//W3C//DTD SVG 1.1//EN" "http://www.w3.org/Graphics/SVG/1.1/DTD/svg11.dtd">
<svg version="1.1" id="Layer_1" xmlns="http://www.w3.org/2000/svg" xmlns:xlink="http://www.w3.org/1999/xlink" x="0px" y="0px"
	 width="100px" height="100px" viewBox="0 0 512 512" enable-background="new 0 0 512 512" xml:space="preserve">
<g>
	<g>
		<g>
			<path fill="#E5AA17" d="M262.617,7.909C125.598,7.909,14.523,118.972,14.523,256c0,137.012,111.074,248.091,248.094,248.091
				c137.012,0,248.088-111.079,248.088-248.091C510.705,118.972,399.629,7.909,262.617,7.909z"/>
		</g>
	</g>
	<g>
		<g>
			<g>
				<g>
					<path fill="#206982" d="M210.85,189.752l2.791-0.854C212.221,189.255,210.85,189.752,210.85,189.752z"/>
				</g>
			</g>
			<g>
				<g>
					<path fill="#206982" d="M213.641,188.897l-2.791,0.854c-24.104,21.811-78.627,25.827-78.627,25.827
						c-25.25,1.146-56.24-5.74-56.24-5.74c-0.186,0-0.354,0.009-0.531,0.011c-1.365,0.132-3.563,1.032-3.092,3.288
						c0.961,4.616,14.428,11.969,19.906,14.204c5.48,2.234,49.719,11.248,72.959,6.456c22.105-4.558,47.1-38.477,50.361-43.043
						C218.213,188.126,215.867,188.337,213.641,188.897z"/>
				</g>
			</g>
		</g>
		<g>
			<g>
				<path fill="#278CAF" d="M217.738,162.776c0,0-9.598,7.655-8.609,18.511c0.43,4.733,7.963,9.468,7.963,9.468l29.318-10.619
					C246.41,180.136,238.828,172.246,217.738,162.776z"/>
			</g>
		</g>
		<g>
			<g>
				<path fill="#268EBC" d="M457.059,290.185V265.22c-9.184-20.951-48.783-19.8-48.783-19.8
					c-15.496,0.575-25.826-4.015-25.826-4.015L246.41,178.847c0,0-8.873-0.144-15.975,3.515c-7.102,3.659-12.223,5.765-14.85,8.394
					c-3.262,4.566-28.256,38.485-50.361,43.043c-23.24,4.792-67.479-4.222-72.959-6.456c-5.479-2.235-18.945-9.588-19.906-14.204
					c-0.471-2.256,1.727-3.156,3.092-3.288c-15.4,0.236-10.086,10.604-10.086,10.604c-14.635,23.243-9.471,61.123-9.471,61.123
					c0.861,43.043,13.773,39.598,13.773,39.598c15.496,2.583,52.514,2.583,65.426,2.583c12.914,0,62.844,0,62.844,0
					c46.488,0.862,78.34,1.723,78.34,1.723c33.572,2.582,76.617-1.723,76.617-1.723c32.713-2.583,75.756-14.635,75.756-14.635
					C459.641,298.795,457.059,290.185,457.059,290.185z"/>
			</g>
		</g>
		<g>
			<g>
				<path fill="#F4F4F4" d="M403.469,245.419c0,0-8.393,9.041-2.797,46.058c0,0,55.957-14.636,56.387-26.257
					C457.299,258.71,437.475,240.685,403.469,245.419z"/>
			</g>
		</g>
		<g>
			<g>
				<g>
					<g>
						<path fill="#F4F4F4" d="M261.461,185.767l-7.186,1.586l-8.748,8.461c-0.488,0.47-1.078,0.764-1.697,0.892
							c0.016-0.003,0.031-0.002,0.045-0.006l25.994-5.736l0.254-1.214L261.461,185.767z"/>
					</g>
				</g>
				<g>
					<g>
						<path fill="#F4F4F4" d="M266.539,211.831c0.008,0.013,0.014,0.028,0.023,0.042c0.025,0.038,0.063,0.063,0.09,0.102
							C266.615,211.927,266.572,211.883,266.539,211.831z"/>
					</g>
				</g>
				<g>
					<g>
						<path fill="#F4F4F4" d="M283.516,195.909l-8.967,6.226l-1.791,8.485c-0.193,0.922-0.748,1.673-1.479,2.154
							c0.023-0.017,0.051-0.021,0.074-0.037l17.086-11.865l0.266-2.577L283.516,195.909z"/>
					</g>
				</g>
				<g>
					<g>
						<path fill="#F4F4F4" d="M306.299,206.385l-12.453,9.233l-0.801,7.771c-0.105,1.029-0.662,1.898-1.447,2.45
							c0.023-0.016,0.051-0.021,0.072-0.037l18.277-13.55l0.586-3.919L306.299,206.385z"/>
					</g>
				</g>
				<g>
					<g>
						<path fill="#F4F4F4" d="M286.732,224.886c0.043,0.065,0.074,0.139,0.121,0.203c0.014,0.018,0.033,0.032,0.047,0.05
							C286.84,225.058,286.787,224.971,286.732,224.886z"/>
					</g>
				</g>
				<g>
					<g>
						<path fill="#F4F4F4" d="M331.492,217.97l-4.588-2.108l-11.797,8.456l-1.207,8.052c-0.146,0.991-0.711,1.811-1.477,2.333
							c0.023-0.021,0.053-0.024,0.078-0.042l19.094-13.688L331.492,217.97z"/>
					</g>
				</g>
				<g>
					<g>
						<path fill="#F4F4F4" d="M307.59,233.681c0.039,0.061,0.064,0.127,0.107,0.186c0.004,0.006,0.01,0.011,0.014,0.016
							C307.666,233.817,307.633,233.747,307.59,233.681z"/>
					</g>
				</g>
				<g>
					<g>
						<path fill="#F4F4F4" d="M357.41,229.804l-6.004-2.762l-16.377,11.598l2.152,5.583c0.039,1.184-0.52,2.245-1.406,2.897
							c0.002-0.002,0.004-0.002,0.006-0.003l21.799-16.066L357.41,229.804z"/>
					</g>
				</g>
				<g>
					<g>
						<path fill="#F4F4F4" d="M333.105,247.438c0.006,0.008,0.008,0.016,0.014,0.024c0.023,0.031,0.055,0.051,0.078,0.082
							C333.168,247.508,333.133,247.478,333.105,247.438z"/>
					</g>
				</g>
				<g>
					<g>
						<path fill="#F4F4F4" d="M368.461,235.043l-5.771,10.87l1.436,10.596c0.105,0.781-0.07,1.531-0.436,2.166
							c0.018-0.032,0.047-0.055,0.064-0.088l10.975-20.66L368.461,235.043z"/>
					</g>
				</g>
				<g>
					<g>
						<path fill="#E0E1E2" d="M255.865,183.247l-10.248,9.912c-0.018,0.018-0.027,0.034-0.043,0.052
							c-0.092,0.092-0.168,0.192-0.246,0.292c-0.064,0.078-0.133,0.154-0.189,0.24c-0.061,0.092-0.105,0.188-0.156,0.286
							c-0.053,0.099-0.111,0.198-0.156,0.304c-0.041,0.101-0.064,0.205-0.096,0.31c-0.033,0.106-0.07,0.21-0.092,0.321
							c-0.023,0.106-0.027,0.219-0.037,0.328c-0.012,0.11-0.029,0.223-0.029,0.336c0,0.097,0.016,0.196,0.023,0.295
							c0.012,0.128,0.02,0.258,0.045,0.387c0.025,0.125,0.064,0.246,0.104,0.366c0.025,0.08,0.043,0.163,0.074,0.237
							c0.076,0.195,0.17,0.385,0.285,0.566c0.006,0.008,0.012,0.014,0.018,0.024c0.109,0.167,0.238,0.33,0.381,0.48
							c0.047,0.049,0.098,0.093,0.148,0.14c0.109,0.103,0.223,0.201,0.342,0.289c0.07,0.049,0.139,0.095,0.211,0.14
							c0.111,0.068,0.227,0.131,0.344,0.185c0.076,0.035,0.152,0.072,0.23,0.103c0.133,0.054,0.268,0.089,0.404,0.123
							c0.068,0.017,0.131,0.042,0.197,0.052c0.209,0.039,0.42,0.063,0.631,0.063c0.232,0,0.465-0.026,0.699-0.074
							c0.619-0.129,1.209-0.422,1.697-0.894l8.748-8.462l3.426-3.313L255.865,183.247z"/>
					</g>
				</g>
				<g>
					<g>
						<path fill="#E0E1E2" d="M268.625,213.262c0.02,0.003,0.035,0.013,0.053,0.018c0.24,0.051,0.48,0.073,0.715,0.073
							C269.133,213.353,268.877,213.318,268.625,213.262z"/>
					</g>
				</g>
				<g>
					<g>
						<path fill="#E0E1E2" d="M271.824,190.532l-1.955,0.431l-3.85,18.235c-0.002,0.018-0.002,0.033-0.006,0.053
							c0.168-0.85,0.646-1.638,1.412-2.169l7.123-4.947l1.992-9.433L271.824,190.532z"/>
					</g>
				</g>
				<g>
					<g>
						<polygon fill="#E0E1E2" points="270.123,189.749 269.869,190.963 271.824,190.532 						"/>
					</g>
				</g>
				<g>
					<g>
						<path fill="#E0E1E2" d="M267.426,207.082c-0.766,0.531-1.244,1.319-1.412,2.169c-0.025,0.128-0.029,0.258-0.041,0.388
							c-0.008,0.098-0.025,0.192-0.023,0.287c0,0.116,0.02,0.228,0.031,0.339c0.012,0.109,0.014,0.22,0.035,0.326
							c0.02,0.1,0.057,0.193,0.086,0.289c0.035,0.116,0.063,0.235,0.111,0.352c0.033,0.081,0.082,0.154,0.123,0.232
							c0.063,0.125,0.123,0.249,0.203,0.367c0.033,0.052,0.076,0.096,0.113,0.144c0.123,0.162,0.256,0.313,0.4,0.447
							c0.063,0.06,0.131,0.114,0.199,0.169c0.135,0.109,0.279,0.203,0.428,0.29c0.074,0.044,0.146,0.088,0.225,0.124
							c0.166,0.081,0.342,0.141,0.518,0.191c0.068,0.02,0.133,0.049,0.203,0.065c0.252,0.057,0.508,0.091,0.768,0.091
							c0.309,0,0.617-0.053,0.92-0.139c0.047-0.014,0.09-0.021,0.135-0.037c0.289-0.091,0.566-0.229,0.832-0.402
							c0.73-0.481,1.285-1.232,1.479-2.154l1.791-8.485L267.426,207.082z"/>
					</g>
				</g>
				<g>
					<g>
						<path fill="#E0E1E2" d="M289.025,226.412c0.082,0.017,0.16,0.042,0.242,0.051c0.119,0.013,0.236,0.019,0.354,0.019
							C289.42,226.481,289.223,226.447,289.025,226.412z"/>
					</g>
				</g>
				<g>
					<g>
						<path fill="#E0E1E2" d="M289.623,226.481c0.334,0,0.652-0.063,0.959-0.152C290.268,226.419,289.945,226.481,289.623,226.481z"
							/>
					</g>
				</g>
				<g>
					<g>
						<path fill="#E0E1E2" d="M290.777,199.247l-2.338,1.625l-2.244,21.813c-0.008,0.074,0.002,0.145-0.002,0.216
							c0.041-1.005,0.506-1.983,1.375-2.63l6.277-4.652l1.471-14.285L290.777,199.247z"/>
					</g>
				</g>
				<g>
					<g>
						<polygon fill="#E0E1E2" points="288.705,198.295 288.439,200.872 290.777,199.247 						"/>
					</g>
				</g>
				<g>
					<g>
						<path fill="#E0E1E2" d="M287.568,220.271c-0.869,0.646-1.334,1.625-1.375,2.63c-0.004,0.133-0.01,0.264,0,0.391
							c0.008,0.104,0.027,0.206,0.045,0.312c0.02,0.115,0.037,0.234,0.068,0.346c0.029,0.107,0.072,0.212,0.111,0.316
							c0.041,0.104,0.078,0.209,0.129,0.307c0.053,0.108,0.121,0.21,0.186,0.314c0.055,0.085,0.107,0.172,0.168,0.253
							c0.156,0.203,0.326,0.384,0.514,0.544c0.029,0.023,0.064,0.041,0.096,0.063c0.166,0.13,0.342,0.246,0.525,0.343
							c0.08,0.04,0.166,0.069,0.246,0.105c0.146,0.061,0.293,0.114,0.445,0.157c0.098,0.025,0.199,0.044,0.299,0.062
							c0.197,0.035,0.395,0.069,0.596,0.069c0,0,0,0,0.002,0c0.322,0,0.645-0.063,0.959-0.152c0.053-0.016,0.105-0.027,0.158-0.044
							c0.299-0.103,0.588-0.255,0.857-0.445c0.785-0.552,1.342-1.421,1.447-2.45l0.801-7.771L287.568,220.271z"/>
					</g>
				</g>
				<g>
					<g>
						<path fill="#E0E1E2" d="M313.436,209.667l-3.488,2.586l-2.857,19.1c-0.012,0.076-0.004,0.152-0.01,0.229
							c0.078-0.973,0.553-1.906,1.41-2.521l6.617-4.744l1.941-12.988L313.436,209.667z"/>
					</g>
				</g>
				<g>
					<g>
						<path fill="#E0E1E2" d="M310.5,235.305c0.322,0,0.631-0.058,0.932-0.144C311.125,235.247,310.813,235.305,310.5,235.305z"/>
					</g>
				</g>
				<g>
					<g>
						<path fill="#E0E1E2" d="M309.834,235.227c0.051,0.012,0.1,0.029,0.152,0.039c0.17,0.026,0.342,0.039,0.508,0.039
							C310.273,235.305,310.053,235.271,309.834,235.227z"/>
					</g>
				</g>
				<g>
					<g>
						<polygon fill="#E0E1E2" points="310.533,208.334 309.947,212.253 313.436,209.667 						"/>
					</g>
				</g>
				<g>
					<g>
						<path fill="#E0E1E2" d="M308.49,229.062c-0.857,0.614-1.332,1.548-1.41,2.521c-0.012,0.142-0.027,0.281-0.021,0.42
							c0.006,0.109,0.027,0.217,0.041,0.325c0.016,0.113,0.025,0.229,0.053,0.339c0.027,0.117,0.072,0.229,0.111,0.342
							c0.037,0.098,0.064,0.198,0.107,0.293c0.061,0.131,0.141,0.255,0.219,0.38c0.043,0.066,0.076,0.137,0.121,0.201
							c0.154,0.213,0.33,0.398,0.518,0.563c0.057,0.051,0.123,0.091,0.184,0.136c0.141,0.108,0.283,0.208,0.436,0.292
							c0.082,0.045,0.168,0.083,0.252,0.119c0.143,0.064,0.289,0.117,0.439,0.162c0.098,0.027,0.193,0.054,0.295,0.073
							c0.219,0.045,0.439,0.078,0.66,0.078h0.006c0.313,0,0.625-0.058,0.932-0.144c0.053-0.016,0.105-0.026,0.158-0.043
							c0.289-0.097,0.568-0.238,0.834-0.416c0.766-0.522,1.33-1.342,1.477-2.333l1.207-8.052L308.49,229.062z"/>
					</g>
				</g>
				<g>
					<g>
						<path fill="#E0E1E2" d="M335.152,248.778c0.24,0.052,0.484,0.084,0.736,0.084c0.002,0,0.004,0,0.004,0
							C335.645,248.862,335.396,248.832,335.152,248.778z"/>
					</g>
				</g>
				<g>
					<g>
						<path fill="#E0E1E2" d="M336.01,248.861c0.117-0.003,0.229-0.021,0.342-0.037c-0.151,0.022-0.305,0.038-0.457,0.038
							C335.934,248.862,335.973,248.862,336.01,248.861z"/>
					</g>
				</g>
				<g>
					<g>
						<path fill="#E0E1E2" d="M336.344,220.115l-4.389-2.019l-2.512,1.8l0.854,24.566c0,0.005,0.002,0.009,0.002,0.013
							c-0.041-1.102,0.443-2.2,1.398-2.905l5.256-1.961L336.344,220.115z"/>
					</g>
				</g>
				<g>
					<g>
						<polygon fill="#E0E1E2" points="331.492,217.97 331.596,220.972 334.107,219.173 						"/>
					</g>
				</g>
				<g>
					<g>
						<path fill="#E0E1E2" d="M362.689,245.913l-1.957-14.423l-6.266-2.882l-0.977,0.72l3.811,28.104
							c0.014,0.106,0.047,0.206,0.07,0.309c-0.18-0.78-0.104-1.623,0.301-2.386L362.689,245.913z"/>
					</g>
				</g>
				<g>
					<g>
						<polygon fill="#E0E1E2" points="359.563,230.88 359.73,232.126 360.707,231.407 						"/>
					</g>
				</g>
				<g>
					<g>
						<path fill="#E0E1E2" d="M364.125,256.509l-1.436-10.596l-5.018,9.442c-0.404,0.763-0.48,1.605-0.301,2.386
							c0.021,0.09,0.035,0.186,0.063,0.271c0.047,0.143,0.109,0.279,0.172,0.418c0.027,0.057,0.049,0.118,0.078,0.174
							c0.1,0.188,0.219,0.366,0.352,0.532c0.027,0.034,0.059,0.057,0.086,0.089c0.113,0.13,0.23,0.255,0.365,0.368
							c0.061,0.05,0.127,0.092,0.191,0.138c0.113,0.085,0.227,0.165,0.35,0.234c0.063,0.036,0.129,0.062,0.193,0.094
							c0.18,0.085,0.363,0.156,0.549,0.209c0.068,0.02,0.131,0.042,0.199,0.057c0.246,0.054,0.492,0.09,0.74,0.09h0.002
							c0.254,0,0.506-0.047,0.752-0.102c0.082-0.02,0.166-0.037,0.246-0.059c0.256-0.078,0.504-0.177,0.738-0.312
							c0.004-0.003,0.012-0.004,0.018-0.009c0.234-0.138,0.445-0.313,0.645-0.508c0.057-0.055,0.107-0.114,0.16-0.172
							c0.156-0.176,0.299-0.367,0.42-0.58C364.055,258.04,364.23,257.29,364.125,256.509z"/>
					</g>
				</g>
			</g>
			<g>
				<g>
					<g>
						<circle fill="#F4F4F4" cx="359.924" cy="256.469" r="5.74"/>
					</g>
				</g>
				<g>
					<g>
						<circle fill="#8D9296" cx="359.924" cy="256.467" r="3.373"/>
					</g>
				</g>
			</g>
			<g>
				<g>
					<g>
						<circle fill="#F4F4F4" cx="334.17" cy="243.913" r="5.74"/>
					</g>
				</g>
				<g>
					<g>
						<circle fill="#8D9296" cx="334.17" cy="243.913" r="3.373"/>
					</g>
				</g>
			</g>
			<g>
				<g>
					<g>
						<circle fill="#F4F4F4" cx="309.994" cy="232.794" r="5.741"/>
					</g>
				</g>
				<g>
					<g>
						<circle fill="#8D9296" cx="309.994" cy="232.794" r="3.373"/>
					</g>
				</g>
			</g>
			<g>
				<g>
					<g>
						<circle fill="#F4F4F4" cx="288.902" cy="222.895" r="5.74"/>
					</g>
				</g>
				<g>
					<g>
						<circle fill="#8D9296" cx="288.902" cy="222.894" r="3.373"/>
					</g>
				</g>
			</g>
			<g>
				<g>
					<g>
						<circle fill="#F4F4F4" cx="268.385" cy="210.7" r="5.74"/>
					</g>
				</g>
				<g>
					<g>
						<circle fill="#8D9296" cx="268.385" cy="210.699" r="3.373"/>
					</g>
				</g>
			</g>
			<g>
				<g>
					<g>
						<circle fill="#F4F4F4" cx="247.293" cy="197.786" r="5.739"/>
					</g>
				</g>
				<g>
					<g>
						<circle fill="#8D9296" cx="247.293" cy="197.785" r="3.372"/>
					</g>
				</g>
			</g>
		</g>
		<g>
			<g>
				<path fill="#E1E3E5" d="M457.059,290.185l0.002-24.104c0,0-29.271,26.687-101.584,30.13c0,0-84.365,1.723-117.078-2.582
					c0,0-63.705-0.861-86.086-0.861c0,0-68.869,1.723-76.617,0.861c0,0-14.635,0.861-18.939-4.303l-0.549,0.019
					c2.162,34.846,13.461,31.831,13.461,31.831c15.496,2.583,52.514,2.583,65.426,2.583c12.914,0,62.844,0,62.844,0
					c46.488,0.862,78.34,1.723,78.34,1.723c33.572,2.582,76.617-1.723,76.617-1.723c32.713-2.583,75.756-14.635,75.756-14.635
					C459.641,298.795,457.059,290.185,457.059,290.185z"/>
			</g>
		</g>
	</g>
</g>
</svg>
