<?xml version="1.0" encoding="utf-8"?>
<!-- Generator: Adobe Illustrator 16.0.0, SVG Export Plug-In . SVG Version: 6.00 Build 0)  -->
<!DOCTYPE svg PUBLIC "-//W3C//DTD SVG 1.1//EN" "http://www.w3.org/Graphics/SVG/1.1/DTD/svg11.dtd">
<svg version="1.1" id="Layer_1" xmlns="http://www.w3.org/2000/svg" xmlns:xlink="http://www.w3.org/1999/xlink" x="0px" y="0px"
	 width="100px" height="100px" viewBox="0 0 512 512" enable-background="new 0 0 512 512" xml:space="preserve">
<g>
	<g>
		<g>
			<path fill="#E79E2F" d="M249.39,7.909C112.37,7.909,1.296,118.972,1.296,256c0,137.012,111.074,248.091,248.094,248.091
				c137.012,0,248.088-111.079,248.088-248.091C497.478,118.972,386.401,7.909,249.39,7.909z"/>
		</g>
	</g>
	<g>
		<g>
			<g>
				<g>
					<path fill="#B2B2AA" d="M213.787,373.6l-3.032,39.154c0.548,0.254,1.109,0.503,1.683,0.748l3.083-39.769L213.787,373.6z"/>
				</g>
			</g>
			<g>
				<g>
					<path fill="#B2B2AA" d="M227.211,374.64l-3.302,42.615c0.567,0.142,1.138,0.274,1.711,0.405l3.321-42.886L227.211,374.64z"/>
				</g>
			</g>
			<g>
				<g>
					<path fill="#B2B2AA" d="M240.637,375.678l-3.402,43.886c0.574,0.061,1.15,0.118,1.732,0.17l3.4-43.921L240.637,375.678z"/>
				</g>
			</g>
			<g>
				<g>
					<path fill="#B2B2AA" d="M254.061,376.72l-3.364,43.436c0.585-0.009,1.169-0.026,1.747-0.05l3.35-43.252L254.061,376.72z"/>
				</g>
			</g>
			<g>
				<g>
					<path fill="#B2B2AA" d="M267.485,377.759l-3.185,41.12c0.598-0.106,1.187-0.217,1.768-0.338l3.146-40.648L267.485,377.759z"/>
				</g>
			</g>
			<g>
				<g>
					<path fill="#B2B2AA" d="M280.91,378.799l-2.771,35.755c0.645-0.329,1.244-0.676,1.824-1.029l2.679-34.593L280.91,378.799z"/>
				</g>
			</g>
			<g>
				<g>
					<path fill="#BFBFB0" d="M209.457,373.265l-2.89,37.288c0.534,0.319,1.096,0.632,1.671,0.938l2.949-38.092L209.457,373.265z"/>
				</g>
			</g>
			<g>
				<g>
					<path fill="#BFBFB0" d="M222.879,374.304l-3.234,41.79c0.561,0.168,1.129,0.334,1.703,0.494l3.267-42.149L222.879,374.304z"/>
				</g>
			</g>
			<g>
				<g>
					<path fill="#BFBFB0" d="M236.307,375.344l-3.383,43.671c0.57,0.085,1.145,0.165,1.723,0.24l3.389-43.777L236.307,375.344z"/>
				</g>
			</g>
			<g>
				<g>
					<path fill="#BFBFB0" d="M249.729,376.384l-3.39,43.767c0.584,0.013,1.163,0.022,1.741,0.025l3.38-43.66L249.729,376.384z"/>
				</g>
			</g>
			<g>
				<g>
					<path fill="#BFBFB0" d="M263.155,377.424l-3.263,42.11c0.596-0.068,1.181-0.147,1.762-0.23l3.232-41.747L263.155,377.424z"/>
				</g>
			</g>
			<g>
				<g>
					<path fill="#BFBFB0" d="M276.58,378.463l-2.945,38.006c0.615-0.218,1.216-0.441,1.795-0.678l2.879-37.195L276.58,378.463z"/>
				</g>
			</g>
			<g>
				<g>
					<path fill="#D3D3D3" d="M204.692,372.896l-2.665,34.423c0.51,0.445,1.058,0.882,1.639,1.314l2.76-35.604L204.692,372.896z"/>
				</g>
			</g>
			<g>
				<g>
					<path fill="#D3D3D3" d="M218.117,373.935l-3.142,40.581c0.554,0.208,1.12,0.412,1.694,0.61l3.181-41.057L218.117,373.935z"/>
				</g>
			</g>
			<g>
				<g>
					<path fill="#D3D3D3" d="M231.541,374.975l-3.349,43.227c0.569,0.112,1.142,0.219,1.719,0.322l3.364-43.414L231.541,374.975z"/>
				</g>
			</g>
			<g>
				<g>
					<path fill="#D3D3D3" d="M244.967,376.014l-3.402,43.924c0.58,0.037,1.16,0.074,1.734,0.102l3.398-43.891L244.967,376.014z"/>
				</g>
			</g>
			<g>
				<g>
					<path fill="#D3D3D3" d="M258.391,377.055l-3.322,42.919c0.588-0.036,1.172-0.081,1.75-0.131l3.304-42.654L258.391,377.055z"/>
				</g>
			</g>
			<g>
				<g>
					<path fill="#D3D3D3" d="M271.814,378.093l-3.088,39.846c0.606-0.151,1.199-0.308,1.783-0.473l3.037-39.237L271.814,378.093z"/>
				</g>
			</g>
		</g>
		<g>
			<g>
				<path fill="#BFBFB0" d="M274.883,254.156c-10.021-77.063-27.319-125.934-27.319-125.934l-45.97,0.685
					c0,0,8.25,76.007,8.924,119.552c0.673,43.549-6.186,125.746-6.186,125.746s21.417,6.4,41.803,7.722
					c20.381,1.321,37.01-2.613,37.01-2.613S284.895,331.221,274.883,254.156z"/>
			</g>
		</g>
		<g>
			<g>
				<g>
					<g>
						<path fill="#B2B2AA" d="M246.203,412.15v48.789c0.703,0.263,1.425,0.518,2.159,0.766V412.15H246.203z"/>
					</g>
				</g>
				<g>
					<g>
						<path fill="#B2B2AA" d="M262.932,412.15v53.104c0.713,0.118,1.432,0.231,2.158,0.337V412.15H262.932z"/>
					</g>
				</g>
				<g>
					<g>
						<path fill="#B2B2AA" d="M279.659,412.15v54.685c0.716,0.021,1.437,0.035,2.159,0.044V412.15H279.659z"/>
					</g>
				</g>
				<g>
					<g>
						<path fill="#B2B2AA" d="M296.389,412.15v54.129c0.725-0.071,1.445-0.147,2.158-0.23V412.15H296.389z"/>
					</g>
				</g>
				<g>
					<g>
						<path fill="#B2B2AA" d="M313.117,412.15v51.24c0.73-0.189,1.449-0.385,2.157-0.587V412.15H313.117z"/>
					</g>
				</g>
				<g>
					<g>
						<path fill="#B2B2AA" d="M329.844,412.15v44.556c0.766-0.47,1.477-0.956,2.16-1.448V412.15H329.844z"/>
					</g>
				</g>
				<g>
					<g>
						<path fill="#BFBFB0" d="M240.807,412.15v46.465c0.693,0.344,1.418,0.677,2.158,1.004V412.15H240.807z"/>
					</g>
				</g>
				<g>
					<g>
						<path fill="#BFBFB0" d="M257.535,412.15v52.073c0.712,0.156,1.431,0.307,2.159,0.45V412.15H257.535z"/>
					</g>
				</g>
				<g>
					<g>
						<path fill="#BFBFB0" d="M274.264,412.15v54.42c0.715,0.049,1.435,0.093,2.158,0.132V412.15H274.264z"/>
					</g>
				</g>
				<g>
					<g>
						<path fill="#BFBFB0" d="M290.991,412.15v54.538c0.724-0.039,1.444-0.085,2.159-0.136V412.15H290.991z"/>
					</g>
				</g>
				<g>
					<g>
						<path fill="#BFBFB0" d="M307.721,412.15v52.478c0.729-0.145,1.447-0.299,2.158-0.457V412.15H307.721z"/>
					</g>
				</g>
				<g>
					<g>
						<path fill="#BFBFB0" d="M324.449,412.15v47.361c0.74-0.33,1.465-0.666,2.157-1.013V412.15H324.449z"/>
					</g>
				</g>
				<g>
					<g>
						<path fill="#D3D3D3" d="M234.871,412.15v42.895c0.678,0.502,1.396,0.992,2.159,1.471V412.15H234.871z"/>
					</g>
				</g>
				<g>
					<g>
						<path fill="#D3D3D3" d="M251.6,412.15v50.566c0.707,0.205,1.426,0.404,2.158,0.596V412.15H251.6z"/>
					</g>
				</g>
				<g>
					<g>
						<path fill="#D3D3D3" d="M268.327,412.15v53.864c0.715,0.085,1.434,0.163,2.159,0.235v-54.1H268.327z"/>
					</g>
				</g>
				<g>
					<g>
						<path fill="#D3D3D3" d="M285.057,412.15v54.731c0.723-0.007,1.443-0.019,2.158-0.038V412.15H285.057z"/>
					</g>
				</g>
				<g>
					<g>
						<path fill="#D3D3D3" d="M301.785,412.15v53.482c0.727-0.104,1.443-0.214,2.156-0.33V412.15H301.785z"/>
					</g>
				</g>
				<g>
					<g>
						<path fill="#D3D3D3" d="M318.512,412.15v49.652c0.734-0.246,1.455-0.497,2.16-0.757V412.15H318.512z"/>
					</g>
				</g>
			</g>
			<g>
				<g>
					<path fill="#D0D1BD" d="M309.145,269.102c-17.933-91.299-42.389-157.627-42.389-157.627s-11.563-1.55-27.824-0.775
						c-16.267,0.773-27.045,5.15-27.045,5.15s15.74,99.45,19.917,151.425c4.179,51.978,2.345,150.72,2.345,150.72
						s26.086,5.988,50.539,5.988c24.457,0,44.021-5.988,44.021-5.988S327.078,360.4,309.145,269.102z"/>
				</g>
			</g>
			<g>
				<g>
					<path fill="#E0E2C8" d="M313.403,267.552c-17.444-91.359-42.388-157.627-42.388-157.627s-11.563-1.55-27.827-0.774
						c-16.265,0.774-27.042,5.15-27.042,5.15s15.74,99.451,19.918,151.426c4.176,51.977,2.345,150.719,2.345,150.719
						s26.083,5.988,50.539,5.988c24.455,0,44.021-5.988,44.021-5.988S330.852,358.944,313.403,267.552z"/>
				</g>
			</g>
		</g>
		<g>
			<g>
				<path fill="#E0E2C8" d="M320.429,77.142c0,29.044-35.518,52.589-79.333,52.589c-43.814,0-79.334-23.545-79.334-52.589
					c0-3.282-26.445-2.368-26.445,19.232c0,45.807,47.357,82.941,105.779,82.941c58.42,0,105.779-37.135,105.779-82.941
					C346.875,73.785,320.429,71.559,320.429,77.142z"/>
			</g>
		</g>
		<g>
			<g>
				<path fill="#D0D1BD" d="M271.25,118.92c0,0-11.967-1.436-28.805-0.719c-16.842,0.716-28.001,4.772-28.001,4.772
					s7.718,45.549,8.864,52.11c1.325,7.563,8.891,12.673,18.349,12.86c3.749,0.078,42.745-3.026,42.745-3.026
					s8.889-1.324,8.509-9.645C290.798,128.773,271.25,118.92,271.25,118.92z"/>
			</g>
		</g>
		<g>
			<g>
				<path fill="#E0E2C8" d="M271.016,109.821c0,0-11.563-1.386-27.827-0.694c-16.265,0.693-27.042,4.609-27.042,4.609
					s7.45,43.998,8.561,50.337c1.279,7.308,8.586,12.24,17.721,12.424c3.623,0.071,41.291-2.924,41.291-2.924
					s8.586-1.277,8.22-9.318C289.898,119.34,271.016,109.821,271.016,109.821z"/>
			</g>
		</g>
	</g>
</g>
</svg>
