<?xml version="1.0" encoding="utf-8"?>
<!-- Generator: Adobe Illustrator 16.0.0, SVG Export Plug-In . SVG Version: 6.00 Build 0)  -->
<!DOCTYPE svg PUBLIC "-//W3C//DTD SVG 1.1//EN" "http://www.w3.org/Graphics/SVG/1.1/DTD/svg11.dtd">
<svg version="1.1" id="Layer_1" xmlns="http://www.w3.org/2000/svg" xmlns:xlink="http://www.w3.org/1999/xlink" x="0px" y="0px"
	 width="100px" height="100px" viewBox="0 0 136.914 136.913" enable-background="new 0 0 136.914 136.913"
	 xml:space="preserve">
<g>
	<g>
		<g>
			<g>
				<g>
					<g>
						<circle fill="#FCB315" cx="68.457" cy="68.457" r="63.333"/>
					</g>
				</g>
			</g>
		</g>
	</g>
	<g>
		<path fill="#E8DBCD" d="M99.958,104.508c0,5.631-4.564,10.195-10.195,10.195H48.131c-5.63,0-10.194-4.564-10.194-10.195v-60.32
			c0-5.631,4.564-10.195,10.194-10.195h41.631c5.631,0,10.195,4.564,10.195,10.195V104.508z"/>
		<path fill="#E4D4BE" d="M99.958,104.508c0,5.631-4.564,10.195-10.195,10.195H48.131c-5.63,0-10.194-4.564-10.194-10.195
			l51.825-70.516c5.631,0,10.195,4.564,10.195,10.195V104.508z"/>
		<g>
			<path fill="#357180" d="M85.514,34.967c0,3.508-33.135,3.508-33.135,0V23.139c0-3.51,2.439-6.355,5.447-6.355h22.24
				c3.01,0,5.447,2.846,5.447,6.355V34.967z"/>
			<path fill="#67B8CB" d="M85.514,34.967c0,3.508-33.135,3.508-33.135,0V24.965c0-0.076,8.049,1.158,16.285,1.158
				c8.33-0.002,16.85-1.236,16.85-1.158V34.967z"/>
			<path fill="#67B8CB" d="M85.514,22.984c0,0-8.779,1.32-16.566,1.32c-7.789,0-16.568-1.32-16.568-1.32v0.154
				c0-3.51,2.439-6.355,5.447-6.355h22.24c3.01,0,5.447,2.846,5.447,6.355V22.984z"/>
			<path fill="#357180" d="M74.576,25.41c0,2.096-2.33,4.518-5.204,4.518c-2.873,0-5.203-2.422-5.203-4.518
				c0,0,2.33-0.451,5.203-0.451C72.246,24.959,74.576,25.41,74.576,25.41z"/>
		</g>
		<g>
			<path fill="#FCB315" d="M72.354,87.732l2.395-6.814c1.126-0.455,2.194-1.07,3.174-1.838l7.12,1.412l-3.15-6.563
				c0.488-1.129,0.811-2.301,0.965-3.492l6.037-4.037l-6.797-2.391c-0.445-1.162-1.059-2.27-1.835-3.285l1.391-7.014l-6.35,3.049
				c-1.285-0.59-2.635-0.957-4.001-1.109l-3.741-5.789l-2.155,6.459c-1.401,0.496-2.726,1.232-3.911,2.201L54.874,57.1l3.019,6.041
				c-0.657,1.402-1.048,2.883-1.183,4.375l-5.688,3.676l6.479,2.162c0.512,1.363,1.244,2.65,2.207,3.803l-1.444,6.725l6.246-3.121
				c1.248,0.551,2.555,0.895,3.875,1.039L72.354,87.732z"/>
			<path fill="#FBCD10" d="M81.653,53.711l-6.351,3.049c-1.284-0.59-2.634-0.957-4-1.109l-3.741-5.789l-2.155,6.459
				c-1.401,0.498-2.725,1.232-3.911,2.203L54.874,57.1l3.019,6.041c-0.657,1.404-1.047,2.881-1.183,4.375l-5.688,3.676l6.479,2.162
				c0.512,1.363,1.244,2.652,2.206,3.803l-1.443,6.725L81.653,53.711z"/>
		</g>
		<path fill="#EECF37" d="M85.823,100.26c0,1.408-1.143,2.549-2.549,2.549H53.538c-1.408,0-2.549-1.141-2.549-2.549l0,0
			c0-1.406,1.141-2.549,2.549-2.549h29.736C84.68,97.711,85.823,98.854,85.823,100.26L85.823,100.26z"/>
	</g>
</g>
</svg>
