<?xml version="1.0" encoding="utf-8"?>
<!-- Generator: Adobe Illustrator 16.0.0, SVG Export Plug-In . SVG Version: 6.00 Build 0)  -->
<!DOCTYPE svg PUBLIC "-//W3C//DTD SVG 1.1//EN" "http://www.w3.org/Graphics/SVG/1.1/DTD/svg11.dtd">
<svg version="1.1" id="Layer_1" xmlns="http://www.w3.org/2000/svg" xmlns:xlink="http://www.w3.org/1999/xlink" x="0px" y="0px"
	 width="100px" height="100px" viewBox="0 0 512 512" enable-background="new 0 0 512 512" xml:space="preserve">
<g>
	<g>
		<g>
			<path fill="#A3D5E0" d="M256.696,7.909C119.677,7.909,8.603,118.972,8.603,256c0,137.012,111.074,248.091,248.094,248.091
				c137.012,0,248.088-111.079,248.088-248.091C504.784,118.972,393.708,7.909,256.696,7.909z"/>
		</g>
	</g>
	<g>
		<g>
			<g>
				<g>
					<path fill="#49A0AE" d="M413.287,142.84c-22.658-22.004-55.993-16.387-67.334-3.184
						c-16.001,18.629-22.814,58.299-28.662,95.428c0,0-10.385-50.581-21.671-55.095c-16.666-6.666-25.332,17.334-24.666,40.667
						c0.628,22.001,14.562,73.701,17.333,80c2.772,6.299-2.935,51.281-2.935,51.281c45.366,8.318,82.268,22.719,82.268,22.719
						s50.333-84,61.334-120.667C438.694,221.523,440.449,169.218,413.287,142.84z M428.633,221.893l-0.145,0.213
						c0.077-0.124,0.158-0.256,0.238-0.384L428.633,221.893z"/>
				</g>
			</g>
			<g>
				<g>
					<path fill="#419AA3" d="M367.618,334.412l-63.989-15.531c-12.002-2.915-22.324-2.308-24.629,7.196l-4.761,19.083
						c-2.306,9.506,5.553,19.57,17.556,22.483l63.988,15.531c12.004,2.915,23.604-2.432,25.909-11.937l4.761-19.082
						C388.759,342.651,379.622,337.324,367.618,334.412z"/>
				</g>
			</g>
		</g>
		<g>
			<g>
				<g>
					<path fill="#49A0AE" d="M242.433,220.656c0.666-23.333-8-47.333-24.666-40.667c-11.286,4.514-21.671,55.095-21.671,55.095
						c-5.848-37.129-12.661-76.799-28.662-95.428c-11.341-13.203-44.676-18.82-67.334,3.184
						c-27.162,26.378-25.407,78.684-15.667,111.149c11.001,36.667,61.334,120.667,61.334,120.667s36.901-14.4,82.268-22.719
						c0,0-5.707-44.982-2.935-51.281C227.871,294.357,241.805,242.657,242.433,220.656z M84.754,221.893l-0.094-0.171
						c0.08,0.128,0.161,0.26,0.238,0.384L84.754,221.893z"/>
				</g>
			</g>
			<g>
				<g>
					<path fill="#419AA3" d="M239.147,345.16l-4.761-19.083c-2.305-9.504-12.627-10.111-24.629-7.196l-63.989,15.531
						c-12.004,2.912-21.141,8.239-18.835,17.744l4.761,19.082c2.306,9.505,13.905,14.852,25.909,11.937l63.988-15.531
						C233.595,364.73,241.453,354.666,239.147,345.16z"/>
				</g>
			</g>
		</g>
	</g>
</g>
</svg>
