<?xml version="1.0" encoding="utf-8"?>
<!-- Generator: Adobe Illustrator 16.0.0, SVG Export Plug-In . SVG Version: 6.00 Build 0)  -->
<!DOCTYPE svg PUBLIC "-//W3C//DTD SVG 1.1//EN" "http://www.w3.org/Graphics/SVG/1.1/DTD/svg11.dtd">
<svg version="1.1" id="Layer_1" xmlns="http://www.w3.org/2000/svg" xmlns:xlink="http://www.w3.org/1999/xlink" x="0px" y="0px"
	 width="100px" height="100px" viewBox="0 0 512 512" enable-background="new 0 0 512 512" xml:space="preserve">
<g>
	<g>
		<g>
			<path fill="#D8DBBA" d="M256.003,7.909C118.983,7.909,7.909,118.972,7.909,256c0,137.012,111.074,248.091,248.094,248.091
				c137.012,0,248.088-111.079,248.088-248.091C504.091,118.972,393.015,7.909,256.003,7.909z"/>
		</g>
	</g>
	<g>
		<g>
			<g>
				<rect x="117.402" y="146.907" fill="#6F8FA5" width="276.579" height="27.701"/>
			</g>
		</g>
		<g>
			<g>
				<rect x="123.946" y="156.868" fill="#557282" width="262.478" height="88.176"/>
			</g>
		</g>
		<g>
			<g>
				<path fill="#8AA5BC" d="M100.923,267.616l0.947,79.042c0,0,26.379,10.992,52.895,15.389c26.517,4.397,58.352,4.397,58.352,4.397
					l40.234-74.734L100.923,267.616z"/>
			</g>
		</g>
		<g>
			<g>
				<path fill="#8AA5BC" d="M258.478,290.46l40.231,74.734c0,0,37.715-1.192,61.693-4.992c23.978-3.802,49.554-14.794,49.554-14.794
					l0.947-79.042L258.478,290.46z"/>
			</g>
		</g>
		<g>
			<g>
				<path fill="#9EB8CC" d="M357.417,344.588l-65.762,7.504l7.054,13.103c0,0,37.715-1.192,61.693-4.992
					c23.978-3.802,49.554-14.794,49.554-14.794l0.194-16.154L357.417,344.588z"/>
			</g>
		</g>
		<g>
			<g>
				<path fill="#9EB8CC" d="M154.473,345.838l-52.733-15.334l0.193,16.154c0,0,25.576,10.992,49.555,14.794
					c23.979,3.8,61.693,4.992,61.693,4.992l7.053-13.103L154.473,345.838z"/>
			</g>
		</g>
		<g>
			<g>
				<path fill="#8AA5BC" d="M394.257,146.807c0,0-67.283,22.94-138.53,22.94c-71.249,0-138.956-22.94-138.956-22.94L100.847,267.98
					l149.117,32.729h11.564l149.379-33.757L394.257,146.807z"/>
			</g>
		</g>
		<g>
			<g>
				<polygon fill="#819FB5" points="272.458,186.478 269.761,282.697 260.313,297.54 273.268,284.589 275.696,186.478 				"/>
			</g>
		</g>
		<g>
			<g>
				<path fill="#819FB5" d="M167.003,178.38c-11.134,62.75-62.544,61.129-62.544,61.129l-1.013,8.905
					c68.21-5.665,71.451-68.613,71.451-68.613L167.003,178.38z"/>
			</g>
		</g>
		<g>
			<g>
				<polygon fill="#849EB2" points="245.739,185.673 242.097,185.673 249.247,294.114 				"/>
			</g>
		</g>
		<g>
			<g>
				<path fill="#849EB2" d="M394.257,146.807c0,0-67.283,22.94-138.53,22.94c-71.249,0-138.956-22.94-138.956-22.94l-2.409,18.325
					c14.651,4.611,76.601,22.823,141.357,22.823c64.962,0,126.753-18.325,141.07-22.866L394.257,146.807z"/>
			</g>
		</g>
		<g>
			<g>
				<path fill="#7792A5" d="M396.2,161.313c-9.768,3.182-73.845,23.241-140.472,23.241c-66.526,0-130.837-20.081-140.812-23.306
					l-0.556,3.884c14.651,4.611,76.601,22.823,141.357,22.823c64.962,0,126.753-18.325,141.07-22.866L396.2,161.313z"/>
			</g>
		</g>
		<g>
			<g>
				<g>
					<path fill="#849EB2" d="M184.648,162.712c0,0-2.527-1.238-5.69-1.657c-3.161-0.421-6.761-0.407-6.761-0.407
						s-4.79,11.258,0.993,27.689c0,0,3.033,0.955,5.551,1.383c2.52,0.423,6.479,0.738,6.479,0.738S176.672,172.025,184.648,162.712z
						"/>
				</g>
			</g>
			<g>
				<g>
					<path fill="#8EA9BA" d="M182.449,162.564c0,0-1.413-1.186-3.708-1.454c-2.293-0.272-4.925-0.09-4.925-0.09
						s-3.848,10.756,0.523,26.648c0,0,2.173,0.808,3.995,1.11c1.823,0.305,4.326,0.498,4.326,0.498S176.179,172.178,182.449,162.564
						z"/>
				</g>
			</g>
		</g>
		<g>
			<g>
				<g>
					<path fill="#8AA5B5" d="M394.257,146.807c0,0-67.283,22.94-138.53,22.94c-2.524,0-5.046-0.031-7.558-0.086
						c0,0-5.669,3.658-5.669,9.33c0,5.668,5.669,8.871,5.669,8.871c2.516,0.059,5.035-3.309,7.56-3.309
						c66.627,0,130.704-20.06,140.472-23.241l0.589,3.776L394.257,146.807z"/>
				</g>
			</g>
			<g>
				<g>
					<path fill="#7B9AB2" d="M396.2,161.313c-9.768,3.182-73.845,23.241-140.472,23.241c-2.524,0-5.044-0.038-7.56-0.096
						l-3.813-0.066c1.787,2.313,3.813,3.471,3.813,3.471c2.512,0.054,5.027,0.093,7.55,0.093c64.962,0,126.753-18.325,141.07-22.866
						L396.2,161.313z"/>
				</g>
			</g>
		</g>
		<g>
			<g>
				<path fill="#B9BEC1" d="M259.302,173.728c-3.354,0-6.072,2.716-6.072,6.073c0,3.352,2.719,6.069,6.072,6.069
					s6.071-2.718,6.071-6.069C265.373,176.443,262.655,173.728,259.302,173.728z"/>
			</g>
		</g>
		<g>
			<g>
				<path fill="#819FB5" d="M406.858,239.509c0,0-51.41,1.621-62.543-61.129l-7.896,1.421c0,0,3.24,62.948,71.451,68.613
					L406.858,239.509z"/>
			</g>
		</g>
		<g>
			<g>
				<g>
					<path fill="#849EB2" d="M339.119,160.647c0,0-3.597-0.014-6.761,0.407c-3.162,0.419-5.688,1.657-5.688,1.657
						c7.978,9.313-0.573,27.746-0.573,27.746s3.96-0.315,6.479-0.738c2.518-0.428,5.553-1.383,5.553-1.383
						C343.909,171.905,339.119,160.647,339.119,160.647z"/>
				</g>
			</g>
			<g>
				<g>
					<path fill="#8EA9BA" d="M337.503,161.021c0,0-2.633-0.183-4.928,0.09c-2.294,0.269-3.708,1.454-3.708,1.454
						c6.271,9.613-0.211,26.713-0.211,26.713s2.505-0.193,4.327-0.498c1.818-0.303,3.992-1.11,3.992-1.11
						C341.348,171.776,337.503,161.021,337.503,161.021z"/>
				</g>
			</g>
		</g>
	</g>
</g>
</svg>
