<?xml version="1.0" encoding="utf-8"?>
<!-- Generator: Adobe Illustrator 16.0.0, SVG Export Plug-In . SVG Version: 6.00 Build 0)  -->
<!DOCTYPE svg PUBLIC "-//W3C//DTD SVG 1.1//EN" "http://www.w3.org/Graphics/SVG/1.1/DTD/svg11.dtd">
<svg version="1.1" id="Layer_1" xmlns="http://www.w3.org/2000/svg" xmlns:xlink="http://www.w3.org/1999/xlink" x="0px" y="0px"
	 width="100px" height="100px" viewBox="0 0 512 512" enable-background="new 0 0 512 512" xml:space="preserve">
<g>
	<g>
		<g>
			<path fill="#D8DBBA" d="M256.003,7.909C118.983,7.909,7.909,118.972,7.909,256c0,137.012,111.074,248.091,248.094,248.091
				c137.012,0,248.088-111.079,248.088-248.091C504.091,118.972,393.015,7.909,256.003,7.909z"/>
		</g>
	</g>
	<g>
		<g>
			<g>
				<rect x="190.345" y="59.103" fill="#6F8FA5" width="130.972" height="13.117"/>
			</g>
		</g>
		<g>
			<g>
				<rect x="193.444" y="63.819" fill="#557282" width="124.293" height="41.755"/>
			</g>
		</g>
		<g>
			<g>
				<polygon fill="#8AA5BC" points="182.541,115.672 149.277,445.952 191.657,452.945 254.722,127.081 				"/>
			</g>
		</g>
		<g>
			<g>
				<polygon fill="#9EB8CC" points="149.872,440.038 149.277,445.952 191.657,452.945 192.687,447.628 				"/>
			</g>
		</g>
		<g>
			<g>
				<polygon fill="#8AA5BC" points="329.448,115.672 257.269,127.081 320.333,452.945 362.712,445.952 				"/>
			</g>
		</g>
		<g>
			<g>
				<polygon fill="#9EB8CC" points="362.128,440.038 319.313,447.628 320.343,452.945 362.723,445.952 				"/>
			</g>
		</g>
		<g>
			<g>
				<path fill="#8AA5BC" d="M321.446,59.055c0,0-31.86,10.863-65.6,10.863c-33.738,0-65.801-10.863-65.801-10.863l-7.541,57.382
					l70.613,17.91h5.477l70.736-18.397L321.446,59.055z"/>
			</g>
		</g>
		<g>
			<g>
				<polygon fill="#819FB5" points="263.771,77.841 262.493,118.737 258.02,125.767 264.153,119.633 265.304,77.841 				"/>
			</g>
		</g>
		<g>
			<g>
				<path fill="#819FB5" d="M213.833,74.007c-5.272,29.714-29.617,28.946-29.617,28.946l-0.479,4.218
					c32.3-2.684,33.835-32.492,33.835-32.492L213.833,74.007z"/>
			</g>
		</g>
		<g>
			<g>
				<polygon fill="#849EB2" points="251.118,77.459 249.393,77.459 252.779,125.254 				"/>
			</g>
		</g>
		<g>
			<g>
				<path fill="#849EB2" d="M321.446,59.055c0,0-31.86,10.863-65.6,10.863c-33.738,0-65.801-10.863-65.801-10.863l-1.141,8.679
					c6.938,2.184,36.272,10.807,66.938,10.807c30.762,0,60.022-8.678,66.802-10.828L321.446,59.055z"/>
			</g>
		</g>
		<g>
			<g>
				<path fill="#7792A5" d="M322.366,65.924c-4.624,1.507-34.967,11.007-66.518,11.007c-31.504,0-61.957-9.51-66.681-11.037
					l-0.263,1.84c6.938,2.184,36.272,10.807,66.938,10.807c30.762,0,60.022-8.678,66.802-10.828L322.366,65.924z"/>
			</g>
		</g>
		<g>
			<g>
				<g>
					<path fill="#849EB2" d="M222.188,66.587c0,0-1.196-0.586-2.694-0.785c-1.497-0.199-3.202-0.192-3.202-0.192
						s-2.268,5.331,0.471,13.112c0,0,1.437,0.452,2.629,0.654c1.193,0.2,3.068,0.35,3.068,0.35S218.411,70.997,222.188,66.587z"/>
				</g>
			</g>
			<g>
				<g>
					<path fill="#8EA9BA" d="M221.147,66.517c0,0-0.67-0.561-1.756-0.688c-1.086-0.129-2.332-0.043-2.332-0.043
						s-1.822,5.094,0.248,12.619c0,0,1.029,0.382,1.892,0.525c0.863,0.145,2.048,0.236,2.048,0.236S218.178,71.069,221.147,66.517z"
						/>
				</g>
			</g>
		</g>
		<g>
			<g>
				<g>
					<path fill="#8AA5B5" d="M321.446,59.055c0,0-31.86,10.863-65.6,10.863c-1.195,0-2.389-0.015-3.578-0.04
						c0,0-2.685,1.732-2.685,4.418c0,2.684,2.685,4.201,2.685,4.201c1.191,0.027,2.385-1.566,3.58-1.566
						c31.551,0,61.894-9.5,66.518-11.007l0.279,1.788L321.446,59.055z"/>
				</g>
			</g>
			<g>
				<g>
					<path fill="#7B9AB2" d="M322.366,65.924c-4.624,1.507-34.967,11.007-66.518,11.007c-1.195,0-2.389-0.02-3.58-0.047
						l-1.806-0.031c0.847,1.097,1.806,1.645,1.806,1.645c1.189,0.025,2.381,0.043,3.575,0.043c30.762,0,60.022-8.678,66.802-10.828
						L322.366,65.924z"/>
				</g>
			</g>
		</g>
		<g>
			<g>
				<circle fill="#B9BEC1" cx="257.54" cy="74.679" r="2.875"/>
			</g>
		</g>
		<g>
			<g>
				<path fill="#819FB5" d="M327.415,102.953c0,0-24.346,0.768-29.617-28.946l-3.738,0.672c0,0,1.533,29.809,33.834,32.492
					L327.415,102.953z"/>
			</g>
		</g>
		<g>
			<g>
				<g>
					<path fill="#849EB2" d="M295.337,65.609c0,0-1.703-0.007-3.201,0.192s-2.694,0.785-2.694,0.785
						c3.778,4.41-0.271,13.139-0.271,13.139s1.875-0.149,3.067-0.35c1.192-0.202,2.63-0.654,2.63-0.654
						C297.605,70.94,295.337,65.609,295.337,65.609z"/>
				</g>
			</g>
			<g>
				<g>
					<path fill="#8EA9BA" d="M294.571,65.786c0,0-1.246-0.086-2.333,0.043c-1.087,0.127-1.756,0.688-1.756,0.688
						c2.97,4.553-0.101,12.65-0.101,12.65s1.187-0.092,2.049-0.236c0.862-0.144,1.892-0.525,1.892-0.525
						C296.392,70.88,294.571,65.786,294.571,65.786z"/>
				</g>
			</g>
		</g>
	</g>
</g>
</svg>
