<?xml version="1.0" encoding="utf-8"?>
<!-- Generator: Adobe Illustrator 16.0.0, SVG Export Plug-In . SVG Version: 6.00 Build 0)  -->
<!DOCTYPE svg PUBLIC "-//W3C//DTD SVG 1.1//EN" "http://www.w3.org/Graphics/SVG/1.1/DTD/svg11.dtd">
<svg version="1.1" id="Layer_1" xmlns="http://www.w3.org/2000/svg" xmlns:xlink="http://www.w3.org/1999/xlink" x="0px" y="0px"
	 width="100px" height="100px" viewBox="0 0 512 512" enable-background="new 0 0 512 512" xml:space="preserve">
<g>
	<g>
		<g>
			<path fill="#F7DA5E" d="M256.002,7.909C118.982,7.909,7.908,118.972,7.908,256c0,137.012,111.074,248.091,248.094,248.091
				c137.012,0,248.088-111.079,248.088-248.091C504.09,118.972,393.014,7.909,256.002,7.909z"/>
		</g>
	</g>
	<g>
		<g>
			<g>
				<path fill="#D3715E" d="M255.063,368.572c-38.756,0-133.035-10.618-133.035-10.618l2.032,5.721c0,0,55.042,26.295,73.223,39.732
					c18.184,13.438,45.608,37.635,45.608,37.635s6.93,1.729,13.4,1.729s12.862-1.729,12.862-1.729s29.979-26.484,45.484-37.528
					c15.503-11.044,73.119-39.686,73.119-39.686l2.26-5.874C390.017,357.954,293.82,368.572,255.063,368.572z"/>
			</g>
		</g>
		<g>
			<g>
				<g>
					<path fill="#D3715E" d="M200.125,215.204c-33.263-25.586-53.905-59.377-53.905-59.377
						c-44.367,69.92-34.766,111.338,5.71,128.281c49.821,20.855,84.584-2.383,90.508-22.215
						C242.438,261.894,234.39,241.562,200.125,215.204z"/>
				</g>
			</g>
			<g>
				<g>
					<path fill="#D3715E" d="M363.829,155.827c0,0-20.644,33.791-53.906,59.377c-34.264,26.357-42.312,46.689-42.312,46.689
						c5.923,19.832,40.687,43.07,90.507,22.215C398.594,267.165,408.195,225.747,363.829,155.827z"/>
				</g>
			</g>
			<g>
				<g>
					<path fill="#D3715E" d="M197.114,85.306c-25.604,19.201-52.024,72.404-52.024,72.404l4.958,8.171
						c0,0,27.863-60.62,51.208-77.94s54.219-20.855,54.219-20.855v-4.089C255.475,62.996,222.718,66.103,197.114,85.306z"/>
				</g>
			</g>
			<g>
				<g>
					<path fill="#D3715E" d="M312.794,85.306c-25.604-19.203-58.361-22.31-58.361-22.31v4.089c0,0,30.874,3.535,54.219,20.855
						s51.208,77.94,51.208,77.94l4.958-8.171C364.817,157.71,338.397,104.507,312.794,85.306z"/>
				</g>
			</g>
			<g>
				<g>
					<path fill="#D3715E" d="M269.639,261.585h-31.632c-6.767,0-6.767,6.545,0,6.545h31.632
						C276.406,268.13,276.406,261.585,269.639,261.585z"/>
				</g>
			</g>
		</g>
		<g>
			<g>
				<path fill="#D3715E" d="M266.762,126.685c-7.132-13.499-4.744-23.49-2.825-31.518c0.838-3.506,1.628-6.816,1.514-9.925
					c-0.212-5.731-4.214-10.767-8.123-14.698c1.771-2.777,3.007-5.267,2.644-7.533c-0.437-2.723-2.765-4.168-6.049-3.779
					c-2.959,0.35-6.942,2.324-6.726,5.119c0.111,1.459,1.575,2.809,4.232,5.26c0.482,0.444,0.992,0.916,1.52,1.41
					c-0.063,0.094-0.125,0.186-0.188,0.277c-3.292,4.875-7.389,10.942-6.298,17.125c0.684,3.875,1.988,7.146,3.14,10.034
					c1.794,4.503,3.212,8.062,1.982,12.362c-0.257,0.9,0.264,1.838,1.164,2.096c0.896,0.252,1.838-0.266,2.095-1.164
					c1.547-5.414-0.222-9.851-2.094-14.548c-1.144-2.87-2.326-5.837-2.949-9.368c-0.839-4.752,2.546-9.866,5.608-14.404
					c3.314,3.418,6.493,7.582,6.654,11.938c0.099,2.646-0.606,5.596-1.423,9.011c-2.051,8.581-4.604,19.261,3.125,33.888
					c0.304,0.576,0.892,0.904,1.499,0.904c0.268,0,0.538-0.064,0.791-0.197C266.883,128.536,267.198,127.511,266.762,126.685z
					 M254.832,68.143c-0.38-0.354-0.751-0.695-1.105-1.024c-1.143-1.053-2.528-2.33-3.032-2.993c0.65-0.688,2.974-1.793,4.791-1.532
					c0.932,0.135,1.074,0.545,1.139,0.953C256.794,64.608,255.978,66.28,254.832,68.143z"/>
			</g>
		</g>
		<g>
			<g>
				<path fill="#D3715E" d="M120.573,367.95c-0.062-0.093-0.124-0.186-0.188-0.277c0.527-0.496,1.038-0.967,1.521-1.412
					c2.657-2.451,4.121-3.801,4.232-5.26c0.216-2.795-3.767-4.77-6.726-5.119c-3.284-0.388-5.612,1.059-6.049,3.779
					c-0.363,2.268,0.872,4.757,2.644,7.535c-3.909,3.931-7.911,8.965-8.123,14.697c-0.114,3.108,0.677,6.42,1.514,9.924
					c1.919,8.029,4.306,18.02-2.825,31.519c-0.438,0.827-0.121,1.853,0.706,2.288c0.253,0.135,0.524,0.198,0.791,0.198
					c0.607,0,1.195-0.329,1.499-0.905c7.729-14.627,5.176-25.305,3.125-33.887c-0.816-3.416-1.521-6.365-1.423-9.012
					c0.161-4.355,3.34-8.52,6.653-11.936c3.063,4.537,6.447,9.651,5.609,14.402c-0.623,3.531-1.806,6.499-2.949,9.369
					c-1.872,4.697-3.641,9.134-2.094,14.548c0.257,0.899,1.197,1.417,2.095,1.163c0.899-0.256,1.421-1.195,1.163-2.094
					c-1.229-4.303,0.189-7.859,1.984-12.363c1.15-2.887,2.455-6.16,3.139-10.033C127.963,378.892,123.866,372.824,120.573,367.95z
					 M118.503,364.794c-1.146-1.862-1.962-3.535-1.793-4.597c0.065-0.409,0.208-0.819,1.141-0.953
					c1.816-0.261,4.14,0.844,4.79,1.532c-0.504,0.662-1.89,1.939-3.032,2.994C119.253,364.099,118.883,364.44,118.503,364.794z"/>
			</g>
		</g>
		<g>
			<g>
				<path fill="#D3715E" d="M404.065,423.336c-7.132-13.499-4.744-23.489-2.825-31.519c0.837-3.504,1.628-6.815,1.514-9.924
					c-0.212-5.732-4.214-10.767-8.123-14.697c1.771-2.778,3.007-5.268,2.644-7.535c-0.437-2.721-2.766-4.167-6.049-3.779
					c-2.959,0.35-6.941,2.324-6.726,5.119c0.111,1.459,1.575,2.809,4.232,5.26c0.482,0.445,0.993,0.916,1.521,1.412
					c-0.063,0.092-0.126,0.185-0.188,0.277c-3.293,4.874-7.391,10.941-6.299,17.125c0.684,3.873,1.988,7.146,3.139,10.033
					c1.795,4.504,3.213,8.061,1.984,12.363c-0.258,0.898,0.264,1.838,1.163,2.094c0.897,0.254,1.838-0.264,2.095-1.163
					c1.547-5.414-0.222-9.851-2.094-14.548c-1.144-2.87-2.326-5.838-2.949-9.369c-0.839-4.751,2.546-9.865,5.609-14.402
					c3.313,3.416,6.492,7.58,6.653,11.936c0.099,2.646-0.606,5.596-1.423,9.012c-2.051,8.582-4.604,19.26,3.125,33.887
					c0.304,0.576,0.892,0.905,1.499,0.905c0.267,0,0.538-0.063,0.791-0.198C404.187,425.188,404.502,424.163,404.065,423.336z
					 M392.136,364.794c-0.38-0.354-0.75-0.695-1.105-1.023c-1.143-1.055-2.528-2.332-3.032-2.994c0.65-0.688,2.974-1.793,4.79-1.532
					c0.933,0.134,1.075,0.544,1.14,0.953C394.098,361.259,393.281,362.932,392.136,364.794z"/>
			</g>
		</g>
		<g>
			<g>
				<g>
					<g>
						<path fill="#FFFFFF" d="M348.172,207.034c-5.303-0.01-9.609,3.139-9.624,10.955c-0.013,5.756,4.263,17.34,9.568,17.352
							c5.305,0.01,9.626-11.959,9.637-17.313C357.77,210.212,353.479,207.045,348.172,207.034z"/>
					</g>
				</g>
				<g>
					<g>
						<path fill="#F4E028" d="M347.979,222.769c-2.394-0.005-4.335,0.672-4.342,4.199c-0.007,3.525,2.873,8.565,4.314,8.568
							c1.505,0.002,4.341-5.025,4.349-8.551C352.308,223.457,350.37,222.772,347.979,222.769z"/>
					</g>
				</g>
			</g>
			<g>
				<g>
					<g>
						<path fill="#FFFFFF" d="M377.776,233.404c-0.683-5.261-4.369-9.118-12.119-8.112c-5.709,0.74-16.636,6.492-15.953,11.754
							c0.683,5.26,13.113,7.982,18.424,7.293C375.878,243.333,378.458,238.663,377.776,233.404z"/>
					</g>
				</g>
				<g>
					<g>
						<path fill="#F4E028" d="M362.15,235.266c-0.308-2.372-1.231-4.21-4.729-3.755c-3.498,0.453-8.117,3.968-7.934,5.397
							c0.195,1.491,5.551,3.647,9.047,3.192C362.034,239.647,362.458,237.64,362.15,235.266z"/>
					</g>
				</g>
			</g>
			<g>
				<g>
					<g>
						<path fill="#FFFFFF" d="M366.725,251.05c-2.976-4.928-12.64-12.613-17.181-9.872c-4.541,2.743-2.028,15.219,0.74,19.801
							c4.042,6.692,9.352,7.172,13.893,4.431C368.718,262.665,370.767,257.739,366.725,251.05z"/>
					</g>
				</g>
				<g>
					<g>
						<path fill="#F4E028" d="M357.716,246.014c-1.822-3.019-6.898-5.833-8.133-5.087c-1.286,0.777-1.105,6.548,0.718,9.566
							s3.835,2.6,5.882,1.361C358.231,250.618,359.539,249.032,357.716,246.014z"/>
					</g>
				</g>
			</g>
			<g>
				<g>
					<g>
						<path fill="#FFFFFF" d="M345.271,241.022c-4.585-2.667-14.322,5.524-17.016,10.152c-3.931,6.758-1.803,11.648,2.782,14.315
							c4.586,2.667,9.89,2.099,13.82-4.657C347.751,255.857,349.857,243.69,345.271,241.022z"/>
					</g>
				</g>
				<g>
					<g>
						<path fill="#F4E028" d="M345.511,240.937c-1.298-0.756-6.273,2.174-8.047,5.221c-1.773,3.05-0.439,4.611,1.629,5.814
							c2.066,1.203,4.086,1.592,5.859-1.458C346.726,247.466,346.759,241.661,345.511,240.937z"/>
					</g>
				</g>
			</g>
			<g>
				<g>
					<g>
						<path fill="#FFFFFF" d="M330.201,224.381c-7.704-1.327-11.545,2.372-12.444,7.601c-0.9,5.227,1.48,9.998,9.186,11.326
							c5.67,0.978,17.809-1.293,18.709-6.521S335.479,225.29,330.201,224.381z"/>
					</g>
				</g>
				<g>
					<g>
						<path fill="#F4E028" d="M338.116,231.261c-3.476-0.6-4.476,1.195-4.881,3.553c-0.406,2.357-0.065,4.386,3.41,4.984
							c3.475,0.598,8.926-1.396,9.171-2.817C346.073,235.499,341.59,231.859,338.116,231.261z"/>
					</g>
				</g>
			</g>
			<g>
				<g>

						<ellipse transform="matrix(0.0021 -1 1 0.0021 108.214 585.9608)" fill="#F4E028" cx="347.689" cy="238.762" rx="5.233" ry="5.499"/>
				</g>
			</g>
			<g>
				<g>

						<ellipse transform="matrix(0.0021 -1 1 0.0021 108.1892 585.9429)" fill="#E2CB23" cx="347.689" cy="238.762" rx="3.216" ry="3.628"/>
				</g>
			</g>
		</g>
	</g>
</g>
</svg>
