<?xml version="1.0" encoding="utf-8"?>
<!-- Generator: Adobe Illustrator 16.0.0, SVG Export Plug-In . SVG Version: 6.00 Build 0)  -->
<!DOCTYPE svg PUBLIC "-//W3C//DTD SVG 1.1//EN" "http://www.w3.org/Graphics/SVG/1.1/DTD/svg11.dtd">
<svg version="1.1" id="Layer_1" xmlns="http://www.w3.org/2000/svg" xmlns:xlink="http://www.w3.org/1999/xlink" x="0px" y="0px"
	 width="100px" height="100px" viewBox="0 0 512 512" enable-background="new 0 0 512 512" xml:space="preserve">
<g>
	<g>
		<g>
			<path fill="#F7DA5E" d="M256.003,7.909C118.983,7.909,7.909,118.972,7.909,256c0,137.012,111.074,248.091,248.094,248.091
				c137.012,0,248.088-111.079,248.088-248.091C504.091,118.972,393.015,7.909,256.003,7.909z"/>
		</g>
	</g>
	<g>
		<g>
			<g>
				<path fill="#49A0AE" d="M255.401,34.374c-15.665,0-55.785,33.473-55.785,76.728c0,69.769,27.464,68.761,55.785,68.761
					c28.324,0,55.788,1.319,55.788-68.761C311.189,67.847,274.05,34.374,255.401,34.374z"/>
			</g>
		</g>
		<g>
			<g>
				<g>
					<path fill="#49A0AE" d="M395.181,274.255c-3.761-22.791-14.67-43.626-40.965-95.561c-7.406-14.627-54.851-22.938-54.851-22.938
						S260.743,177.509,256,177.509c-5.606,0-48.199-21.752-48.199-21.752s-42.785,8.23-50.018,22.938
						c-23.872,48.547-37.205,72.77-40.964,95.561c-3.764,22.789,2.98,136.447,2.98,136.447s6.588,0.22,14.039-1.313
						c7.449-1.535,10.505-5.698,10.505-5.698s2.021-107.23,5.244-120.67c3.223-13.44,26.903-48.023,26.903-48.023l11.292,88.928
						l-14.36,97.297c0,11.833,15.094,14.766,33.716,14.766h97.72c18.624,0,33.719-2.933,33.719-14.766l-14.362-97.297l11.294-88.928
						c0,0,23.68,34.583,26.902,48.023c3.224,13.439,5.245,120.67,5.245,120.67s2.409,3.067,9.861,5.698
						c7.45,2.629,14.681,1.313,14.681,1.313S398.944,297.044,395.181,274.255z"/>
				</g>
			</g>
			<g>
				<g>
					<path fill="#459AA3" d="M176.705,218.741c-0.219-6.794-2.923-22.791-2.923-22.791s-0.875,25.42,2.506,39.047
						C176.288,234.997,176.923,225.533,176.705,218.741z"/>
				</g>
			</g>
			<g>
				<g>
					<path fill="#459AA3" d="M338.073,195.95c0,0-2.7,15.997-2.92,22.791c-0.217,6.792,0.418,16.256,0.418,16.256
						C338.952,221.37,338.073,195.95,338.073,195.95z"/>
				</g>
			</g>
		</g>
		<g>
			<g>
				<g>
					<path fill="#3D8991" d="M277.545,199.34c0-8.047,2.801-27.493,2.801-27.493h-2.801c0,0-2.8,19.446-2.8,27.493
						c0,8.048,6.068,39.563,5.601,52.305c-0.467,12.741-2.801,26.151-2.801,26.151h2.801c0,0,2.334-13.41,2.802-26.151
						C283.613,238.903,277.545,207.388,277.545,199.34z"/>
				</g>
			</g>
			<g>
				<g>
					<circle fill="#3D8991" cx="278.713" cy="172.08" r="3.034"/>
				</g>
			</g>
		</g>
		<g>
			<g>
				<g>
					<path fill="#3D8991" d="M236.2,259.282c0.467-12.74,2.256-47.028,2.256-55.075s-3.5-32.36-3.5-32.36h-2.801
						c0,0,3.501,24.313,3.501,32.36s-1.79,42.335-2.257,55.075s2.179,27.071,2.179,27.071h2.8
						C238.378,286.354,235.733,272.022,236.2,259.282z"/>
				</g>
			</g>
			<g>
				<g>
					<circle fill="#3D8991" cx="233.322" cy="172.08" r="3.034"/>
				</g>
			</g>
		</g>
		<g>
			<g>
				<path fill="#3D8991" d="M255.617,53.917c-23.177,0-41.97,19.872-41.97,56.774c0,36.901,41.97,66.817,41.97,66.817
					s41.972-29.916,41.972-66.817C297.589,73.789,278.8,53.917,255.617,53.917z"/>
			</g>
		</g>
	</g>
</g>
</svg>
