<?xml version="1.0" encoding="utf-8"?>
<!-- Generator: Adobe Illustrator 16.0.0, SVG Export Plug-In . SVG Version: 6.00 Build 0)  -->
<!DOCTYPE svg PUBLIC "-//W3C//DTD SVG 1.1//EN" "http://www.w3.org/Graphics/SVG/1.1/DTD/svg11.dtd">
<svg version="1.1" id="Layer_1" xmlns="http://www.w3.org/2000/svg" xmlns:xlink="http://www.w3.org/1999/xlink" x="0px" y="0px"
	 width="100px" height="100px" viewBox="0 0 512 512" enable-background="new 0 0 512 512" xml:space="preserve">
<g>
	<g>
		<g>
			<path fill="#EDC92F" d="M256.003,7.909C118.983,7.909,7.909,118.972,7.909,256c0,137.012,111.074,248.091,248.094,248.091
				c137.012,0,248.088-111.079,248.088-248.091C504.091,118.972,393.015,7.909,256.003,7.909z"/>
		</g>
	</g>
	<g>
		<g>
			<g>
				<ellipse fill="#E8E3CF" cx="256" cy="276.077" rx="209.227" ry="74.608"/>
			</g>
		</g>
		<g>
			<g>
				<path fill="#E8E3CF" d="M256,111.456c-51.901,0-94.609,24.867-102.221,88.121c0,57.851,204.441,53.523,204.441,0
					C347.368,136.323,307.901,111.456,256,111.456z"/>
			</g>
		</g>
		<g>
			<g>
				<path fill="#EAE7DA" d="M256,111.456c-26.019,0-49.727,6.25-67.86,20.451c0,0,12.716,19.014,67.831,19.014
					c55.117,0,68.332-17.648,68.332-17.648C306.35,118.104,282.838,111.456,256,111.456z"/>
			</g>
		</g>
		<g>
			<g>
				<path fill="#E84849" d="M358.221,199.577c0,53.523-204.441,57.851-204.441,0c0.687-5.718-7.69,10.372-9.733,27.348
					c0,63.356,223.909,58.617,223.909,0C365.289,211.385,357.439,195.013,358.221,199.577z"/>
			</g>
		</g>
		<g>
			<g>
				<g>
					<g>
						<g>
							<g>
								<path fill="#F6A2A3" d="M200.138,206.386c-6.915,0-12.517,6.281-12.517,16.469s5.602,20.423,12.517,20.423
									c6.912,0,12.516-10.235,12.516-20.423S207.05,206.386,200.138,206.386z"/>
							</g>
						</g>
						<g>
							<g>
								<path fill="#E84849" d="M200.35,213.925c-5.066,0-9.177,5.062-9.177,12.534c0,7.468,4.11,14.509,9.177,14.509
									c5.067,0,9.171-7.041,9.171-14.509C209.521,218.986,205.417,213.925,200.35,213.925z"/>
							</g>
						</g>
					</g>
					<g>
						<g>
							<g>
								<path fill="#F6A2A3" d="M231.117,219.915c-4.892-4.889-13.299-4.412-20.496,2.791c-7.206,7.203-10.483,18.408-5.594,23.29
									c4.892,4.891,16.087,1.612,23.291-5.585C235.523,233.208,236.001,224.803,231.117,219.915z"/>
							</g>
						</g>
						<g>
							<g>
								<path fill="#E84849" d="M225.932,225.396c-3.582-3.586-10.071-2.911-15.355,2.375c-5.275,5.275-7.354,13.164-3.772,16.743
									c3.591,3.591,11.474,1.507,16.753-3.771C228.838,235.463,229.518,228.98,225.932,225.396z"/>
							</g>
						</g>
					</g>
					<g>
						<g>
							<g>
								<path fill="#F6A2A3" d="M218.316,266.874c-3.98-9.38-13.136-16.614-19.499-13.909c-6.365,2.698-7.524,14.308-3.545,23.688
									c3.978,9.373,11.587,12.969,17.948,10.271C219.585,284.218,222.295,276.254,218.316,266.874z"/>
							</g>
						</g>
						<g>
							<g>
								<path fill="#E84849" d="M213.638,264.938c-2.915-6.87-9.452-11.749-14.113-9.766c-4.669,1.977-5.7,10.062-2.783,16.938
									c2.92,6.87,8.676,9.931,13.344,7.954C214.752,278.086,216.556,271.815,213.638,264.938z"/>
							</g>
						</g>
					</g>
					<g>
						<g>
							<g>
								<path fill="#F6A2A3" d="M171.672,240.36c-10.184,0.126-16.404,5.797-16.316,12.713c0.083,6.904,6.434,12.438,16.621,12.315
									c10.185-0.12,20.344-5.851,20.263-12.763C192.156,245.71,181.852,240.233,171.672,240.36z"/>
							</g>
						</g>
						<g>
							<g>
								<path fill="#E84849" d="M175.318,243.442c-7.473,0.089-12.487,4.258-12.426,9.326c0.061,5.07,5.176,9.116,12.643,9.021
									c7.468-0.086,14.455-4.28,14.402-9.346C189.869,247.377,182.776,243.35,175.318,243.442z"/>
							</g>
						</g>
					</g>
					<g>
						<g>
							<g>
								<path fill="#F6A2A3" d="M187.855,221.217c-7.292-7.112-15.702-7.495-20.532-2.544c-4.823,4.945-4.251,13.344,3.045,20.459
									c7.286,7.11,18.525,10.25,23.352,5.302C198.551,239.492,195.136,228.335,187.855,221.217z"/>
							</g>
						</g>
						<g>
							<g>
								<path fill="#E84849" d="M188.241,225.979c-5.345-5.218-11.837-5.819-15.373-2.189c-3.542,3.624-2.788,10.099,2.559,15.319
									c5.346,5.215,13.251,7.194,16.792,3.564C195.758,239.049,193.588,231.189,188.241,225.979z"/>
							</g>
						</g>
					</g>
					<g>
						<g>
							<g>
								<path fill="#F6A2A3" d="M224.979,247.263c-10.156-0.83-20.81,3.932-21.374,10.818c-0.557,6.886,9.19,13.305,19.345,14.135
									c10.152,0.817,16.868-4.252,17.426-11.145C240.941,254.185,235.135,248.083,224.979,247.263z"/>
							</g>
						</g>
						<g>
							<g>
								<path fill="#E84849" d="M221.098,250.51c-7.445-0.605-14.796,2.917-15.206,7.97c-0.415,5.049,6.273,9.716,13.72,10.317
									c7.438,0.608,12.824-3.075,13.232-8.125C233.258,255.619,228.537,251.111,221.098,250.51z"/>
							</g>
						</g>
					</g>
					<g>
						<g>
							<g>
								<path fill="#F6A2A3" d="M192.195,253.687c-6.406-2.591-15.438,4.796-19.252,14.237c-3.82,9.446-0.979,17.371,5.427,19.962
									c6.413,2.583,13.962-1.141,17.78-10.58C199.967,267.859,198.606,256.274,192.195,253.687z"/>
							</g>
						</g>
						<g>
							<g>
								<path fill="#E84849" d="M191.133,255.739c-4.693-1.9-11.143,3.096-13.94,10.014c-2.795,6.928-0.892,13.156,3.808,15.061
									c4.699,1.894,10.406-1.258,13.205-8.178C197.005,265.706,195.834,257.644,191.133,255.739z"/>
							</g>
						</g>
					</g>
					<g>
						<g>
							<path fill="#F4E028" d="M197.146,237.534c-9.077,0-16.433,6.52-16.433,14.565c0,8.047,7.355,14.572,16.433,14.572
								c9.08,0,16.442-6.525,16.442-14.572C213.588,244.054,206.226,237.534,197.146,237.534z"/>
						</g>
					</g>
					<g>
						<g>
							<path fill="#E5CE27" d="M197.146,242.495c-5.981,0-10.833,4.305-10.833,9.604c0,5.303,4.852,9.604,10.833,9.604
								c5.985,0,10.839-4.302,10.839-9.604C207.984,246.8,203.131,242.495,197.146,242.495z"/>
						</g>
					</g>
				</g>
			</g>
		</g>
	</g>
</g>
</svg>
