<?xml version="1.0" encoding="utf-8"?>
<!-- Generator: Adobe Illustrator 16.0.0, SVG Export Plug-In . SVG Version: 6.00 Build 0)  -->
<!DOCTYPE svg PUBLIC "-//W3C//DTD SVG 1.1//EN" "http://www.w3.org/Graphics/SVG/1.1/DTD/svg11.dtd">
<svg version="1.1" id="Layer_1" xmlns="http://www.w3.org/2000/svg" xmlns:xlink="http://www.w3.org/1999/xlink" x="0px" y="0px"
	 width="100px" height="100px" viewBox="0 0 512 512" style="enable-background:new 0 0 512 512;" xml:space="preserve">
<style type="text/css">
<![CDATA[
	.st0{fill:#474441;}
	.st1{fill:#AB908C;}
	.st2{fill:#7C5B4D;}
	.st3{fill:#48A1AF;}
	.st4{fill:#7CBCBF;}
	.st5{fill:#494949;}
	.st6{fill:#ADDDE9;}
	.st7{fill:#AECF00;}
	.st8{fill:#E0AE55;}
	.st9{fill:#E0B896;}
	.st10{fill:#E0DCCE;}
	.st11{fill:#E17A2D;}
	.st12{fill:#E20E64;}
	.st13{fill:#E28A79;}
	.st14{fill:#E29898;}
	.st15{fill:#E2BB9A;}
	.st16{fill:#E2C796;}
	.st17{fill:#E2CB23;}
	.st18{fill:#E2DECF;}
	.st19{fill:#E2E2E2;}
	.st20{fill:#E4F2F4;}
	.st21{fill:#4ABC96;}
	.st22{fill:#E5DFE3;}
	.st23{fill:#E5E1DA;}
	.st24{fill:#4C4C4C;}
	.st25{fill:#E8B1A0;}
	.st26{fill:#E8C7AF;}
	.st27{fill:#E8CEA7;}
	.st28{fill:#E8DCCA;}
	.st29{fill:#E8E3CD;}
	.st30{fill:#E8E3D1;}
	.st31{fill:#E8E6E6;}
	.st32{fill:#E9C29C;}
	.st33{fill:#4F4E4E;}
	.st34{fill:#806C69;}
	.st35{fill:#B28766;}
	.st36{fill:#B29952;}
	.st37{fill:#B2B1B1;}
	.st38{fill:#83CCC6;}
	.st39{fill:#B4222D;}
	.st40{fill:#B5805D;}
	.st41{fill:#B6D9DF;}
	.st42{fill:#EABC60;}
	.st43{fill:#EAE8E4;}
	.st44{fill:#EAEAEA;}
	.st45{fill:#EB9783;}
	.st46{fill:#B7B7B7;}
	.st47{fill:#88D67B;}
	.st48{fill:#89887D;}
	.st49{fill:#EDBF77;}
	.st50{fill:#EDC2A2;}
	.st51{fill:#EDC92F;}
	.st52{fill:#EDE6DD;}
	.st53{fill:#515151;}
	.st54{fill:#EFE4DC;}
	.st55{fill:#EFE8DF;}
	.st56{fill:#535454;}
	.st57{fill:#565656;}
	.st58{fill:#BA8E68;}
	.st59{fill:#BC2A3C;}
	.st60{fill:#BC9DC6;}
	.st61{fill:#8D6956;}
	.st62{fill:#BF2244;}
	.st63{fill:#BFB89D;}
	.st64{fill:#F25872;}
	.st65{fill:#F2EDF1;}
	.st66{fill:#F2F2F2;}
	.st67{fill:#F4CCB0;}
	.st68{fill:#F4E028;}
	.st69{fill:#F5EFD8;}
	.st70{fill:#5B4F3F;}
	.st71{fill:#5B5B5B;}
	.st72{fill:#F7CD84;}
	.st73{fill:#F7F1ED;}
	.st74{fill:#F7F3F0;}
	.st75{fill:#F7F3F2;}
	.st76{fill:#F7F9F9;}
	.st77{fill:#5E5E5E;}
	.st78{fill:#5E9B0E;}
	.st79{fill:#F9EDF3;}
	.st80{fill:#F9F4EF;}
	.st81{fill:#5F4744;}
	.st82{fill:#5F6060;}
	.st83{fill:#90F47F;}
	.st84{fill:#917751;}
	.st85{fill:#91C7CF;}
	.st86{fill:#C1A857;}
	.st87{fill:#C1C1C1;}
	.st88{fill:#937341;}
	.st89{fill:#C4BC99;}
	.st90{fill:#C6C6C6;}
	.st91{fill:#2D2D2D;}
	.st92{fill:#99774A;}
	.st93{fill:#99937F;}
	.st94{fill:#C9936B;}
	.st95{fill:#C9C3AD;}
	.st96{fill:#C9F4EC;}
	.st97{opacity:0.5;}
	.st98{fill:#608C13;}
	.st99{fill:#61994D;}
	.st100{fill:#FFB357;}
	.st101{fill:#FFFFFF;}
	.st102{fill:#666666;}
	.st103{fill:#9ACCC2;}
	.st104{fill:#CC9679;}
	.st105{fill:#CCC6B4;}
	.st106{fill:#CCC8B8;}
	.st107{fill-rule:evenodd;clip-rule:evenodd;fill:#5E4F63;}
	.st108{fill:#9E835A;}
	.st109{fill:#306A87;}
	.st110{fill:#CE0658;}
	.st111{fill:#CE8C78;}
	.st112{fill:#CE9D4E;}
	.st113{fill:#CEA98D;}
	.st114{fill:#CEC8C0;}
	.st115{fill:#333333;}
	.st116{fill:#6B6B6B;}
	.st117{fill:#6BBBC1;}
	.st118{fill:#6DB4BF;}
	.st119{fill:#6FA519;}
	.st120{fill:#D10566;}
	.st121{fill:#D1AB8F;}
	.st122{fill:#D37866;}
	.st123{fill:#D3AB8D;}
	.st124{fill:#D3AE92;}
	.st125{fill:#D3CCA7;}
	.st126{fill:#3A3A3A;}
	.st127{fill:#D6BC50;}
	.st128{fill:#D89A82;}
	.st129{fill:#D8AF91;}
	.st130{fill:#D8D8D8;}
	.st131{fill:#3F3F3F;}
	.st132{fill:#707070;}
	.st133{fill:#70B1B7;}
	.st134{fill:#A076AB;}
	.st135{display:none;}
	.st136{fill:#72CC5E;}
	.st137{fill:#A31D2D;}
	.st138{fill:#A3D5E0;}
	.st139{fill:#A58763;}
	.st140{fill:#DACF9F;}
	.st141{fill:#A77F64;}
	.st142{fill:#DB1675;}
	.st143{fill:#DB9A83;}
	.st144{fill:#A7D8CF;}
	.st145{fill:#DBB595;}
	.st146{fill:#78C1BA;}
	.st147{fill:#DBC565;}
	.st148{fill:#DBD8C6;}
	.st149{fill:#DBDDDD;}
	.st150{fill:#DD8F8C;}
	.st151{fill:#DDDCDB;}
	.st152{fill:#DEFCF8;}
	.st153{fill:#444444;}
]]>
</style>
<g>
	<g>
		<g>
			<path class="st21" d="M256.003,7.924c-137.012,0-248.082,111.06-248.082,248.082c0,137.001,111.07,248.07,248.082,248.07
				c137.006,0,248.076-111.069,248.076-248.07C504.079,118.983,393.009,7.924,256.003,7.924z"/>
		</g>
	</g>
	<g>
		<g>
			<g>
				<g>
					<g>
						<path class="st31" d="M392.458,201.444c0-34.018-20.183-94.268-74.941-94.268c-34.308,0-44.323,28.077-44.323,62.098
							c0,5.214,0.654,10.642,1.888,16.093c2.649,23.239,10.542,65.404,10.542,83.582c0,25.754,3.43,91.148,3.43,91.148
							c0.48,24.247,17.508,39.152,41.641,39.739c27.209-0.587,44.917-15.493,45.397-39.739h0.02l8.48-81.994l7.813-68.446
							l-0.527-0.173C392.251,206.955,392.458,204.286,392.458,201.444z"/>
					</g>
				</g>
				<g>
					<g>
						<path class="st75" d="M383.125,205.519c0-31.356-17.024-86.89-63.212-86.89c-28.938,0-37.386,25.879-37.386,57.238
							c0,4.806,0.551,9.809,1.592,14.833c2.235,21.421,8.893,60.285,8.893,77.041c0,23.739,2.893,84.014,2.893,84.014
							c0.405,22.349,14.768,36.088,35.124,36.629c22.95-0.541,37.886-14.28,38.292-36.629h0.017l7.153-75.577l6.59-63.089
							l-0.445-0.16C382.95,210.598,383.125,208.138,383.125,205.519z"/>
					</g>
				</g>
				<g>
					<g>
						<path class="st34" d="M285.177,226.251l-4.624,18.996c5.818,15.402,9.928,28.406,9.928,28.406
							C298.695,261.676,285.177,226.251,285.177,226.251z"/>
					</g>
				</g>
				<g>
					<g>
						<path class="st1" d="M322.134,139.5c0,0-25.154,31.313-33.101,46.849c-7.947,15.536-11.556,29.124-11.903,38.365
							c-0.42,11.466,3.937,21.818,3.937,21.818s7.446-33.881,17.968-53.13c6.292-11.513,23.272-34.395,23.272-34.395L322.134,139.5z
							"/>
					</g>
				</g>
				<g>
					<g>
						<path class="st34" d="M382.57,227.539c0,0-12.23,34.138-4.017,46.114c0,0,4.104-13.004,9.921-28.406L382.57,227.539z"/>
					</g>
				</g>
				<g>
					<g>
						<path class="st1" d="M391.898,224.713c-1.455-4.661-11.756-27.719-24.68-42.642c-19.376-22.362-45.083-42.572-45.083-42.572
							l0.173,19.506c0,0,19.336,11.807,34.909,30.118c20.376,23.96,30.745,57.407,30.745,57.407S395.321,235.665,391.898,224.713z"
							/>
					</g>
				</g>
				<g>
					<g>
						<circle class="st81" cx="323.332" cy="151.416" r="5.028"/>
					</g>
				</g>
			</g>
		</g>
		<g>
			<g>
				<g>
					<g>
						<path class="st31" d="M194.483,107.176c-54.758,0-74.941,60.25-74.941,94.268c0,2.842,0.207,5.511,0.581,8.04l-0.527,0.173
							l7.813,68.446l8.48,81.994h0.02c0.48,24.247,18.188,39.152,45.397,39.739c24.133-0.587,41.16-15.493,41.641-39.739
							c0,0,3.43-65.394,3.43-91.148c0-18.178,7.893-60.343,10.542-83.582c1.234-5.451,1.888-10.879,1.888-16.093
							C238.806,135.253,228.791,107.176,194.483,107.176z"/>
					</g>
				</g>
				<g>
					<g>
						<path class="st75" d="M192.087,118.628c-46.188,0-63.212,55.534-63.212,86.89c0,2.62,0.175,5.08,0.49,7.411l-0.445,0.16
							l6.59,63.089l7.153,75.577h0.017c0.405,22.349,15.341,36.088,38.292,36.629c20.356-0.541,34.718-14.28,35.124-36.629
							c0,0,2.893-60.275,2.893-84.014c0-16.756,6.658-55.62,8.893-77.041c1.041-5.024,1.592-10.027,1.592-14.833
							C229.473,144.508,221.025,118.628,192.087,118.628z"/>
					</g>
				</g>
				<g>
					<g>
						<path class="st34" d="M226.823,226.251c0,0-13.518,35.425-5.304,47.402c0,0,4.11-13.004,9.928-28.406L226.823,226.251z"/>
					</g>
				</g>
				<g>
					<g>
						<path class="st1" d="M234.87,224.713c-0.347-9.241-3.957-22.829-11.903-38.365c-7.946-15.536-33.101-46.849-33.101-46.849
							l-0.173,19.506c0,0,16.98,22.882,23.272,34.395c10.522,19.25,17.968,53.13,17.968,53.13S235.29,236.179,234.87,224.713z"/>
					</g>
				</g>
				<g>
					<g>
						<path class="st34" d="M129.43,227.539l-5.905,17.708c5.818,15.402,9.921,28.406,9.921,28.406
							C141.66,261.676,129.43,227.539,129.43,227.539z"/>
					</g>
				</g>
				<g>
					<g>
						<path class="st1" d="M144.782,182.071c-12.924,14.922-23.226,37.981-24.68,42.642c-3.423,10.952,3.937,21.818,3.937,21.818
							s10.369-33.447,30.745-57.407c15.573-18.312,34.909-30.118,34.909-30.118l0.173-19.506
							C189.866,139.5,164.158,159.709,144.782,182.071z"/>
					</g>
				</g>
				<g>
					<g>
						<circle class="st81" cx="188.668" cy="151.416" r="5.028"/>
					</g>
				</g>
			</g>
		</g>
	</g>
</g>
</svg>
