<?xml version="1.0" encoding="utf-8"?>
<!-- Generator: Adobe Illustrator 16.0.0, SVG Export Plug-In . SVG Version: 6.00 Build 0)  -->
<!DOCTYPE svg PUBLIC "-//W3C//DTD SVG 1.1//EN" "http://www.w3.org/Graphics/SVG/1.1/DTD/svg11.dtd">
<svg version="1.1" id="Layer_1" xmlns="http://www.w3.org/2000/svg" xmlns:xlink="http://www.w3.org/1999/xlink" x="0px" y="0px"
	 width="100px" height="100px" viewBox="0 0 512 512" enable-background="new 0 0 512 512" xml:space="preserve">
<g>
	<g>
		<g>
			<path fill="#A3D5E0" d="M256.003,7.909C118.983,7.909,7.909,118.972,7.909,256c0,137.012,111.074,248.091,248.094,248.091
				c137.012,0,248.088-111.079,248.088-248.091C504.091,118.972,393.015,7.909,256.003,7.909z"/>
		</g>
	</g>
	<g>
		<g>
			<g>
				<g>
					<path fill="#EB9783" d="M405.644,270.347c-4.613-15.383-3.055-45.663-1.518-86.875c0,0-20.306-3.396-43.334-3.396
						c-23.574,0-46.343,4.024-46.343,4.024c0.72,48.087-0.292,101.575-16.909,111.547c0,0-75.896,63.245-39.094,98.896
						c21.154,20.493,39.101,16.1,71.303-6.9c32.201-23.002,51.744-45.995,51.744-45.995s13.802-6.901,25.301-23.001
						C418.294,302.547,412.545,293.348,405.644,270.347z"/>
				</g>
			</g>
			<g>
				<g>
					<path fill="#EA4949" d="M405.644,148.45c0,0-23-1.727-46.002-1.151c-23,0.575-46.002,5.751-46.002,5.751l0.81,31.051
						c0,0,22.769-4.024,46.343-4.024c23.028,0,43.334,3.396,43.334,3.396C404.065,185.076,405.644,148.45,405.644,148.45z"/>
				</g>
			</g>
			<g>
				<g>
					<path fill="#EA4949" d="M249.854,360.918c-3.644,12.434,0.345,25.628,8.593,33.625c15.58,15.094,29.42,16.685,48.495,7.296
						C313.765,398.479,249.854,360.918,249.854,360.918z"/>
				</g>
			</g>
			<g>
				<g>
					<path fill="#EA4949" d="M405.644,270.347c0,0-4.6,21.851-7.475,33.926c-2.874,12.075-16.676,37.376-16.676,37.376
						s13.802-6.901,25.301-23.001C418.294,302.547,412.545,293.348,405.644,270.347z"/>
				</g>
			</g>
		</g>
		<g>
			<g>
				<g>
					<path fill="#EB9783" d="M255.919,227.488c-4.613-15.382-3.055-45.663-1.518-86.875c0,0-20.306-3.396-43.334-3.396
						c-23.574,0-46.343,4.024-46.343,4.024c0.72,48.087-0.292,101.574-16.909,111.547c0,0-75.896,63.245-39.094,98.896
						c21.154,20.493,39.101,16.1,71.303-6.899c32.201-23.002,51.744-45.995,51.744-45.995s13.802-6.901,25.301-23.001
						C268.569,259.689,262.82,250.489,255.919,227.488z"/>
				</g>
			</g>
			<g>
				<g>
					<path fill="#EA4949" d="M255.919,105.592c0,0-23-1.727-46.002-1.151c-23,0.575-46.002,5.751-46.002,5.751l0.81,31.051
						c0,0,22.769-4.024,46.343-4.024c23.028,0,43.334,3.396,43.334,3.396C254.341,142.218,255.919,105.592,255.919,105.592z"/>
				</g>
			</g>
			<g>
				<g>
					<path fill="#EA4949" d="M100.129,318.339c-3.644,12.434,0.345,25.35,8.593,33.347c15.58,15.095,29.42,16.685,48.495,7.297
						C164.04,355.621,100.129,318.339,100.129,318.339z"/>
				</g>
			</g>
			<g>
				<g>
					<path fill="#EA4949" d="M255.919,227.488c0,0-4.6,21.851-7.475,33.927c-2.874,12.075-16.676,37.376-16.676,37.376
						s13.802-6.901,25.301-23.001C268.569,259.689,262.82,250.489,255.919,227.488z"/>
				</g>
			</g>
		</g>
	</g>
</g>
</svg>
