<?xml version="1.0" encoding="utf-8"?>
<!-- Generator: Adobe Illustrator 16.0.0, SVG Export Plug-In . SVG Version: 6.00 Build 0)  -->
<!DOCTYPE svg PUBLIC "-//W3C//DTD SVG 1.1//EN" "http://www.w3.org/Graphics/SVG/1.1/DTD/svg11.dtd">
<svg version="1.1" id="Layer_1" xmlns="http://www.w3.org/2000/svg" xmlns:xlink="http://www.w3.org/1999/xlink" x="0px" y="0px"
	 width="100px" height="100px" viewBox="0 0 512 512" enable-background="new 0 0 512 512" xml:space="preserve">
<g>
	<g>
		<g>
			<path fill="#49A0AE" d="M256.004,7.909C118.984,7.909,7.91,118.972,7.91,256c0,137.012,111.074,248.091,248.094,248.091
				c137.012,0,248.088-111.079,248.088-248.091C504.092,118.972,393.016,7.909,256.004,7.909z"/>
		</g>
	</g>
	<g>
		<g>
			<g>
				<g>
					<g>
						<rect x="142.37" y="107.575" fill="#AFD9E0" width="226.576" height="22.691"/>
					</g>
				</g>
				<g>
					<g>
						<rect x="147.731" y="115.735" fill="#97C6CE" width="215.025" height="72.234"/>
					</g>
				</g>
				<g>
					<g>
						<path fill="#A3D5E0" d="M369.173,107.492c0,0-55.118,18.792-113.485,18.792c-58.369,0-113.834-18.792-113.834-18.792
							L107.86,388.604c0,0,27.035,15.904,58.046,15.904c31.012,0,75.806-18.027,75.806-18.027l11.197-148.737h6.184l11.198,148.737
							c0,0,44.793,18.027,75.805,18.027s58.046-15.904,58.046-15.904L369.173,107.492z"/>
					</g>
				</g>
				<g>
					<g>
						<g>
							<path fill="#B5DDE6" d="M183.003,133.358c-8.331,46.961-44.192,49.912-50.332,50.071l-0.873,7.218
								c55.038-5.102,57.674-56.127,57.674-56.127L183.003,133.358z"/>
						</g>
					</g>
					<g>
						<g>
							<path fill="#B5DDE6" d="M378.619,183.431c-6.068-0.152-42.016-3.049-50.358-50.072l-6.467,1.162
								c0,0,2.635,51.057,57.724,56.133L378.619,183.431z"/>
						</g>
					</g>
				</g>
				<g>
					<g>
						<polygon fill="#B5DDE6" points="269.394,139.992 267.185,210.741 259.446,222.902 270.058,212.29 272.048,139.992 						"/>
					</g>
				</g>
				<g>
					<g>
						<polygon fill="#B5DDE6" points="247.506,139.331 244.521,139.331 250.38,222.015 						"/>
					</g>
				</g>
				<g>
					<g>
						<path fill="#B5DDE6" d="M369.173,107.492c0,0-55.118,18.792-113.485,18.792c-58.369,0-113.834-18.792-113.834-18.792
							l-1.974,15.013c12.002,3.779,62.75,18.697,115.802,18.697c53.218,0,103.837-15.014,115.565-18.732L369.173,107.492z"/>
					</g>
				</g>
				<g>
					<g>
						<path fill="#ADD5DB" d="M370.764,119.376c-8,2.606-60.492,19.041-115.075,19.041c-54.498,0-107.182-16.452-115.354-19.094
							l-0.455,3.182c12.002,3.779,62.75,18.697,115.802,18.697c53.218,0,103.837-15.014,115.565-18.732L370.764,119.376z"/>
					</g>
				</g>
				<g>
					<g>
						<g>
							<path fill="#B1DADD" d="M197.46,120.522c0,0-2.07-1.014-4.663-1.357c-2.588-0.346-5.538-0.332-5.538-0.332
								s-3.924,9.221,0.813,22.682c0,0,2.485,0.783,4.548,1.133c2.064,0.346,5.309,0.605,5.309,0.605
								S190.925,128.153,197.46,120.522z"/>
						</g>
					</g>
					<g>
						<g>
							<path fill="#C5E9EF" d="M195.657,120.4c0,0-1.157-0.97-3.037-1.188c-1.878-0.223-4.035-0.075-4.035-0.075
								s-3.152,8.813,0.43,21.833c0,0,1.781,0.659,3.272,0.907c1.494,0.251,3.544,0.409,3.544,0.409S190.521,128.278,195.657,120.4z
								"/>
						</g>
					</g>
				</g>
				<g>
					<g>
						<g>
							<path fill="#BBE4EA" d="M369.173,107.492c0,0-55.118,18.792-113.485,18.792c-2.068,0-4.134-0.023-6.19-0.068
								c0,0-4.646,2.996-4.646,7.645c0,4.641,4.646,7.266,4.646,7.266c2.059,0.049,4.124-2.709,6.191-2.709
								c54.583,0,107.075-16.435,115.075-19.041l0.483,3.094L369.173,107.492z"/>
						</g>
					</g>
					<g>
						<g>
							<path fill="#AFDADD" d="M370.764,119.376c-8,2.606-60.492,19.041-115.075,19.041c-2.067,0-4.133-0.035-6.191-0.081
								l-3.124-0.054c1.463,1.897,3.124,2.844,3.124,2.844c2.057,0.045,4.117,0.076,6.185,0.076
								c53.218,0,103.837-15.014,115.565-18.732L370.764,119.376z"/>
						</g>
					</g>
				</g>
				<g>
					<g>
						<path fill="#B9BEC1" d="M258.616,129.549c-2.748,0-4.975,2.222-4.975,4.972c0,2.748,2.227,4.973,4.975,4.973
							s4.974-2.225,4.974-4.973C263.59,131.771,261.364,129.549,258.616,129.549z"/>
					</g>
				</g>
				<g>
					<g>
						<g>
							<path fill="#B1DADD" d="M324.004,118.833c0,0-2.946-0.014-5.537,0.332c-2.592,0.344-4.661,1.357-4.661,1.357
								c6.534,7.631-0.471,22.73-0.471,22.73s3.244-0.26,5.309-0.605c2.062-0.35,4.548-1.133,4.548-1.133
								C327.929,128.054,324.004,118.833,324.004,118.833z"/>
						</g>
					</g>
					<g>
						<g>
							<path fill="#C5E9EF" d="M322.679,119.137c0,0-2.156-0.147-4.035,0.075c-1.88,0.219-3.037,1.188-3.037,1.188
								c5.137,7.878-0.174,21.886-0.174,21.886s2.051-0.158,3.544-0.409c1.491-0.248,3.271-0.907,3.271-0.907
								C325.828,127.95,322.679,119.137,322.679,119.137z"/>
						</g>
					</g>
				</g>
			</g>
		</g>
		<g>
			<g>
				<g>
					<g>
						<g>
							<g>
								<path fill="#EFE6CA" d="M384.231,228.548c-0.338,0.709-0.698,1.395-1.073,2.054c0.395-0.292,0.805-0.575,1.223-0.854
									L384.231,228.548z"/>
							</g>
						</g>
						<g>
							<g>
								<path fill="#FFFFFF" d="M380.945,202.126c-1.595-0.679-3.375-1.012-5.266-1.016c-6.718-0.014-12.175,3.977-12.193,13.879
									c-0.016,7.293,5.4,21.969,12.123,21.982c0.846,0.002,1.672-0.238,2.469-0.67c0.848-1.992,2.723-3.953,5.08-5.7
									c0.375-0.659,0.735-1.345,1.073-2.054L380.945,202.126z"/>
							</g>
						</g>
						<g>
							<g>
								<path fill="#FFFFFF" d="M384.381,229.747c-0.418,0.279-0.828,0.563-1.223,0.854c-1.462,2.567-3.191,4.678-5.08,5.7
									c-0.4,0.943-0.578,1.893-0.457,2.83c0.226,1.74,1.472,3.26,3.302,4.541c1.667,0.135,3.521,0.768,5.405,1.727
									L384.381,229.747z"/>
							</g>
						</g>
						<g>
							<g>
								<path fill="#FFFFFF" d="M378.078,236.302c1.889-1.022,3.618-3.133,5.08-5.7C380.801,232.349,378.926,234.31,378.078,236.302
									z"/>
							</g>
						</g>
						<g>
							<g>
								<path fill="#FFFFFF" d="M386.447,246.359c-2.086-0.724-4.006-1.622-5.524-2.687c-1.311-0.105-2.507,0.092-3.504,0.695
									c-5.755,3.475-2.571,19.28,0.937,25.086c3.494,5.783,7.735,7.9,11.904,7.561L386.447,246.359z"/>
							</g>
						</g>
						<g>
							<g>
								<path fill="#FFFFFF" d="M386.328,245.399c-1.885-0.959-3.738-1.592-5.405-1.727c1.519,1.064,3.438,1.963,5.524,2.687
									L386.328,245.399z"/>
							</g>
						</g>
					</g>
					<g>
						<g>
							<g>
								<path fill="#F4E028" d="M384.764,232.825c-3.806,1.471-7.605,4.666-7.418,6.133c0.2,1.523,4.646,3.59,8.683,4.035
									L384.764,232.825z"/>
							</g>
						</g>
						<g>
							<g>
								<path fill="#F4E028" d="M386.796,249.164c-2.782-3.269-7.948-5.948-9.329-5.115c-1.629,0.985-1.4,8.296,0.911,12.12
									c2.308,3.824,4.856,3.293,7.45,1.726c0.721-0.435,1.363-0.907,1.875-1.439L386.796,249.164z"/>
							</g>
						</g>
					</g>
				</g>
				<g>
					<g>
						<g>
							<path fill="#FFFFFF" d="M372.004,244.171c-5.809-3.379-18.145,6.998-21.557,12.863c-4.98,8.561-2.284,14.756,3.525,18.135
								c5.81,3.38,12.53,2.66,17.509-5.9C375.146,262.966,377.814,247.55,372.004,244.171z"/>
						</g>
					</g>
					<g>
						<g>
							<path fill="#F4E028" d="M372.308,244.062c-1.644-0.958-7.948,2.754-10.194,6.613c-2.247,3.865-0.557,5.843,2.063,7.367
								c2.618,1.523,5.177,2.017,7.423-1.847C373.847,252.334,373.889,244.979,372.308,244.062z"/>
						</g>
					</g>
				</g>
				<g>
					<g>
						<g>
							<path fill="#FFFFFF" d="M352.912,223.087c-9.761-1.682-14.627,3.006-15.766,9.631c-1.142,6.62,1.875,12.666,11.637,14.349
								c7.184,1.237,22.563-1.64,23.703-8.263C373.628,232.181,359.598,224.238,352.912,223.087z"/>
						</g>
					</g>
					<g>
						<g>
							<path fill="#F4E028" d="M362.939,231.803c-4.403-0.759-5.67,1.515-6.184,4.503c-0.515,2.986-0.083,5.555,4.32,6.314
								c4.402,0.757,11.309-1.77,11.619-3.57C373.021,237.173,367.34,232.562,362.939,231.803z"/>
						</g>
					</g>
				</g>
				<g>
					<g>
						<path fill="#F4E028" d="M375.082,234.677c-3.848-0.007-6.974,2.957-6.98,6.616c-0.006,3.66,3.107,6.636,6.953,6.644
							c3.848,0.008,6.978-2.956,6.982-6.617C382.046,237.661,378.93,234.686,375.082,234.677z"/>
					</g>
				</g>
				<g>
					<g>
						<path fill="#E2CB23" d="M375.076,237.232c-2.535-0.005-4.598,1.815-4.604,4.065c-0.004,2.25,2.052,4.079,4.588,4.084
							c2.541,0.005,4.604-1.816,4.61-4.066C379.672,239.067,377.615,237.237,375.076,237.232z"/>
					</g>
				</g>
				<g>
					<g>
						<path fill="#F4E028" d="M375.434,221.045c-3.031-0.007-5.491,0.851-5.5,5.32c-0.009,4.466,3.64,10.851,5.466,10.854
							c1.907,0.004,5.499-6.367,5.509-10.833C380.919,221.917,378.465,221.05,375.434,221.045z"/>
					</g>
				</g>
			</g>
			<g>
				<g>
					<g>
						<g>
							<path fill="#FFFFFF" d="M310.316,342.587c-6.453-0.013-11.693,3.818-11.711,13.33c-0.016,7.005,5.187,21.102,11.643,21.115
								c6.455,0.012,11.714-14.552,11.727-21.067C321.995,346.453,316.773,342.601,310.316,342.587z"/>
						</g>
					</g>
					<g>
						<g>
							<path fill="#F4E028" d="M310.08,361.733c-2.911-0.006-5.274,0.816-5.283,5.111c-0.008,4.288,3.497,10.422,5.25,10.425
								c1.832,0.003,5.283-6.114,5.293-10.405C315.349,362.571,312.991,361.739,310.08,361.733z"/>
						</g>
					</g>
				</g>
				<g>
					<g>
						<g>
							<path fill="#FFFFFF" d="M346.341,374.676c-0.831-6.401-5.317-11.095-14.747-9.872c-6.947,0.901-20.244,7.901-19.413,14.303
								c0.831,6.402,15.957,9.715,22.419,8.877C344.031,386.757,347.17,381.075,346.341,374.676z"/>
						</g>
					</g>
					<g>
						<g>
							<path fill="#F4E028" d="M327.326,376.94c-0.375-2.887-1.498-5.122-5.756-4.569c-4.256,0.553-9.877,4.829-9.654,6.569
								c0.238,1.813,6.756,4.438,11.01,3.885C327.185,382.273,327.7,379.829,327.326,376.94z"/>
						</g>
					</g>
				</g>
				<g>
					<g>
						<g>
							<g>
								<path fill="#EFE6CA" d="M309.52,398.276c-0.043,0.252-0.09,0.504-0.139,0.754l0.299,0.076
									C309.623,398.831,309.57,398.554,309.52,398.276z"/>
							</g>
						</g>
						<g>
							<g>
								<path fill="#FFFFFF" d="M332.893,396.147c-3.621-5.994-15.381-15.349-20.906-12.012c-1.24,0.748-2.045,2.098-2.514,3.797
									c0.8,2.854,0.689,6.66,0.047,10.344c0.051,0.277,0.104,0.555,0.16,0.83c8.445,2.113,17.373,3.912,25.826,4.803
									C335.419,401.599,334.621,399.009,332.893,396.147z"/>
							</g>
						</g>
						<g>
							<g>
								<path fill="#FFFFFF" d="M309.473,387.933c-0.504-1.796-1.364-3.217-2.686-3.986c-4.591-2.67-13.42,3.602-18.234,9.047
									c6.086,1.98,13.259,4.133,20.828,6.037c0.049-0.25,0.096-0.502,0.139-0.754
									C308.849,394.593,308.688,390.771,309.473,387.933z"/>
							</g>
						</g>
						<g>
							<g>
								<path fill="#FFFFFF" d="M309.473,387.933c-0.784,2.838-0.624,6.66,0.047,10.344
									C310.162,394.593,310.272,390.786,309.473,387.933z"/>
							</g>
						</g>
					</g>
					<g>
						<g>
							<path fill="#F4E028" d="M307.078,383.841c-1.58-0.92-7.635,2.646-9.793,6.354c-1.47,2.529-1.183,4.217-0.056,5.498
								c2.326,0.689,4.739,1.379,7.216,2.049c0.672-0.449,1.326-1.166,1.953-2.246C308.557,391.788,308.597,384.723,307.078,383.841
								z"/>
						</g>
					</g>
				</g>
				<g>
					<g>
						<path fill="#F4E028" d="M321.93,390.021c-2.217-3.674-8.395-7.098-9.896-6.191c-1.564,0.945-1.346,7.969,0.873,11.641
							c2.219,3.674,4.667,3.164,7.158,1.658C322.557,395.622,324.148,393.694,321.93,390.021z"/>
					</g>
				</g>
				<g>
					<g>
						<g>
							<path fill="#FFFFFF" d="M288.447,363.696c-9.374-1.616-14.048,2.886-15.143,9.248c-1.096,6.36,1.802,12.167,11.178,13.783
								c6.899,1.189,21.671-1.574,22.767-7.937S294.869,364.802,288.447,363.696z"/>
						</g>
					</g>
					<g>
						<g>
							<path fill="#F4E028" d="M298.08,372.067c-4.23-0.729-5.447,1.455-5.939,4.324c-0.494,2.868-0.08,5.336,4.149,6.064
								c4.228,0.729,10.861-1.699,11.159-3.428C307.762,377.226,302.307,372.796,298.08,372.067z"/>
						</g>
					</g>
				</g>
				<g>
					<g>
						<path fill="#F4E028" d="M309.742,374.828c-3.695-0.007-6.697,2.839-6.705,6.354c-0.006,3.516,2.985,6.373,6.679,6.381
							c3.696,0.008,6.703-2.84,6.707-6.355C316.432,377.694,313.438,374.835,309.742,374.828z"/>
					</g>
				</g>
				<g>
					<g>
						<path fill="#E2CB23" d="M309.737,377.282c-2.435-0.005-4.417,1.744-4.423,3.904c-0.004,2.162,1.971,3.918,4.406,3.922
							c2.441,0.006,4.422-1.743,4.428-3.904C314.15,379.044,312.176,377.286,309.737,377.282z"/>
					</g>
				</g>
			</g>
			<g>
				<g>
					<g>
						<g>
							<path fill="#FFFFFF" d="M189.216,170.823c-6.542-0.014-11.854,3.871-11.873,13.513c-0.016,7.101,5.259,21.391,11.804,21.403
								c6.544,0.014,11.874-14.75,11.888-21.355C201.054,174.742,195.761,170.836,189.216,170.823z"/>
						</g>
					</g>
					<g>
						<g>
							<path fill="#F4E028" d="M188.977,190.232c-2.952-0.007-5.347,0.827-5.356,5.181c-0.008,4.348,3.545,10.564,5.322,10.568
								c1.857,0.003,5.355-6.199,5.365-10.548C194.317,191.081,191.927,190.237,188.977,190.232z"/>
						</g>
					</g>
				</g>
				<g>
					<g>
						<g>
							<path fill="#FFFFFF" d="M225.733,203.352c-0.842-6.489-5.389-11.247-14.949-10.007c-7.043,0.913-20.521,8.01-19.68,14.498
								c0.843,6.49,16.177,9.848,22.728,8.998C223.392,215.599,226.575,209.839,225.733,203.352z"/>
						</g>
					</g>
					<g>
						<g>
							<path fill="#F4E028" d="M206.458,205.647c-0.379-2.926-1.519-5.192-5.834-4.633c-4.314,0.561-10.013,4.896-9.786,6.659
								c0.241,1.839,6.847,4.499,11.159,3.938C206.315,211.054,206.838,208.575,206.458,205.647z"/>
						</g>
					</g>
				</g>
				<g>
					<g>
						<g>
							<path fill="#FFFFFF" d="M212.101,225.118c-3.67-6.078-15.592-15.56-21.193-12.178c-5.602,3.385-2.502,18.773,0.914,24.426
								c4.985,8.254,11.535,8.847,17.137,5.465C214.56,239.446,217.087,233.37,212.101,225.118z"/>
						</g>
					</g>
					<g>
						<g>
							<path fill="#F4E028" d="M200.988,218.905c-2.248-3.723-8.51-7.193-10.032-6.275c-1.587,0.959-1.363,8.078,0.885,11.801
								c2.25,3.725,4.73,3.207,7.256,1.682C201.624,224.585,203.237,222.63,200.988,218.905z"/>
						</g>
					</g>
				</g>
				<g>
					<g>
						<g>
							<path fill="#FFFFFF" d="M185.638,212.749c-5.656-3.289-17.668,6.814-20.99,12.523c-4.849,8.336-2.224,14.369,3.432,17.658
								c5.658,3.291,12.2,2.59,17.049-5.744C188.696,231.049,191.294,216.04,185.638,212.749z"/>
						</g>
					</g>
					<g>
						<g>
							<path fill="#F4E028" d="M185.933,212.643c-1.602-0.933-7.738,2.681-9.926,6.44c-2.188,3.762-0.543,5.688,2.009,7.172
								c2.549,1.484,5.04,1.963,7.228-1.798C187.431,220.697,187.472,213.536,185.933,212.643z"/>
						</g>
					</g>
				</g>
				<g>
					<g>
						<g>
							<path fill="#FFFFFF" d="M167.048,192.221c-9.504-1.638-14.242,2.927-15.352,9.376c-1.11,6.447,1.826,12.334,11.331,13.973
								c6.994,1.205,21.968-1.598,23.079-8.046C187.217,201.074,173.558,193.342,167.048,192.221z"/>
						</g>
					</g>
					<g>
						<g>
							<path fill="#F4E028" d="M176.812,200.707c-4.288-0.739-5.521,1.476-6.021,4.384c-0.501,2.908-0.08,5.409,4.207,6.148
								c4.285,0.736,11.01-1.723,11.313-3.477C186.626,205.937,181.096,201.446,176.812,200.707z"/>
						</g>
					</g>
				</g>
				<g>
					<g>

							<ellipse transform="matrix(0.0021 -1 1 0.0021 -21.7394 398.1354)" fill="#F4E028" cx="188.62" cy="209.96" rx="6.455" ry="6.783"/>
					</g>
				</g>
				<g>
					<g>
						<path fill="#E2CB23" d="M188.628,205.993c-2.468-0.004-4.477,1.768-4.483,3.958c-0.003,2.191,1.997,3.972,4.468,3.977
							c2.474,0.005,4.482-1.768,4.488-3.958C193.103,207.78,191.101,205.999,188.628,205.993z"/>
					</g>
				</g>
			</g>
			<g>
				<g>
					<g>
						<g>
							<path fill="#FFFFFF" d="M229.652,267.624c-6.542-0.013-11.854,3.871-11.873,13.514c-0.016,7.1,5.259,21.391,11.804,21.403
								s11.874-14.751,11.888-21.355C241.49,271.544,236.197,267.638,229.652,267.624z"/>
						</g>
					</g>
					<g>
						<g>
							<path fill="#F4E028" d="M229.413,287.034c-2.951-0.007-5.347,0.827-5.356,5.18c-0.008,4.348,3.545,10.565,5.322,10.568
								c1.857,0.004,5.355-6.199,5.365-10.547C234.754,287.882,232.363,287.038,229.413,287.034z"/>
						</g>
					</g>
				</g>
				<g>
					<g>
						<g>
							<path fill="none" d="M259.093,237.744h-6.184l-3.979,52.858c0.814-0.209,1.586-0.365,2.291-0.457
								c5.739-0.744,9.66,0.682,12.068,3.338L259.093,237.744z"/>
						</g>
						<g>
							<g>
								<path fill="#EFE6CA" d="M243.072,312.558c1.381,0.933,2.728,1.987,3.972,3.094l0.171-2.262
									C245.856,313.189,244.455,312.909,243.072,312.558z"/>
							</g>
						</g>
						<g>
							<g>
								<path fill="#FFFFFF" d="M231.541,304.645c0.221,1.694,1.434,3.173,3.215,4.421c2.523,0.203,5.488,1.584,8.316,3.492
									c1.383,0.352,2.784,0.632,4.143,0.832l1.715-22.787C241.619,292.478,230.783,298.806,231.541,304.645z"/>
							</g>
						</g>
						<g>
							<g>
								<path fill="#FFFFFF" d="M243.072,312.558c-3.126-0.795-6.145-1.971-8.316-3.492c-1.275-0.102-2.44,0.09-3.412,0.677
									c-5.602,3.384-2.502,18.772,0.914,24.425c3.754,6.217,8.396,8.085,12.852,7.186l1.935-25.701
									C245.8,314.545,244.453,313.49,243.072,312.558z"/>
							</g>
						</g>
						<g>
							<g>
								<path fill="#FFFFFF" d="M234.756,309.065c2.172,1.521,5.19,2.697,8.316,3.492
									C240.244,310.649,237.279,309.269,234.756,309.065z"/>
							</g>
						</g>
					</g>
					<g>
						<g>
							<path fill="#F4E028" d="M241.425,315.707c-2.248-3.723-8.51-7.194-10.032-6.275c-1.587,0.959-1.363,8.077,0.885,11.801
								c2.25,3.724,4.73,3.206,7.256,1.681C242.061,321.387,243.674,319.432,241.425,315.707z"/>
						</g>
					</g>
				</g>
				<g>
					<g>
						<g>
							<path fill="#FFFFFF" d="M226.074,309.551c-5.656-3.29-17.668,6.814-20.99,12.523c-4.849,8.336-2.224,14.368,3.432,17.658
								c5.658,3.29,12.2,2.59,17.049-5.745C229.133,327.851,231.73,312.841,226.074,309.551z"/>
						</g>
					</g>
					<g>
						<g>
							<path fill="#F4E028" d="M226.369,309.444c-1.602-0.934-7.738,2.681-9.926,6.439c-2.188,3.763-0.543,5.688,2.009,7.172
								c2.549,1.484,5.04,1.964,7.228-1.797C227.867,317.499,227.908,310.338,226.369,309.444z"/>
						</g>
					</g>
				</g>
				<g>
					<g>
						<g>
							<path fill="#FFFFFF" d="M207.484,289.022c-9.504-1.639-14.242,2.926-15.352,9.376c-1.11,6.446,1.826,12.333,11.331,13.972
								c6.994,1.205,21.968-1.597,23.079-8.045C227.653,297.876,213.994,290.144,207.484,289.022z"/>
						</g>
					</g>
					<g>
						<g>
							<path fill="#F4E028" d="M217.248,297.509c-4.288-0.739-5.521,1.475-6.021,4.383c-0.501,2.908-0.08,5.41,4.207,6.148
								c4.285,0.737,11.01-1.723,11.313-3.476C227.063,302.737,221.532,298.247,217.248,297.509z"/>
						</g>
					</g>
				</g>
				<g>
					<g>

							<ellipse transform="matrix(0.0021 -1 1 0.0021 -78.1901 535.1686)" fill="#F4E028" cx="229.057" cy="306.762" rx="6.455" ry="6.783"/>
					</g>
				</g>
				<g>
					<g>
						<path fill="#F4E028" d="M246.895,302.449c-0.379-2.927-1.519-5.192-5.834-4.633c-4.314,0.561-10.013,4.896-9.786,6.659
							c0.241,1.838,6.847,4.498,11.159,3.938C246.753,307.854,247.274,305.377,246.895,302.449z"/>
					</g>
				</g>
				<g>
					<g>
						<path fill="#E2CB23" d="M229.064,302.795c-2.468-0.005-4.477,1.768-4.483,3.958c-0.003,2.191,1.997,3.972,4.468,3.977
							c2.474,0.005,4.482-1.768,4.488-3.959C233.539,304.581,231.537,302.8,229.064,302.795z"/>
					</g>
				</g>
			</g>
			<g>
				<g>
					<g>
						<g>
							<path fill="#FFFFFF" d="M134.357,303.239c-6.187-0.012-11.212,3.662-11.229,12.782c-0.015,6.716,4.975,20.233,11.164,20.246
								c6.19,0.013,11.232-13.952,11.245-20.2C145.557,306.946,140.55,303.252,134.357,303.239z"/>
						</g>
					</g>
					<g>
						<g>
							<path fill="#F4E028" d="M134.132,321.599c-2.793-0.006-5.059,0.783-5.066,4.9c-0.008,4.112,3.354,9.994,5.035,9.996
								c1.756,0.004,5.064-5.863,5.074-9.977C139.183,322.401,136.923,321.604,134.132,321.599z"/>
						</g>
					</g>
				</g>
				<g>
					<g>
						<g>
							<path fill="#FFFFFF" d="M168.901,334.009c-0.797-6.139-5.099-10.639-14.142-9.467c-6.661,0.865-19.411,7.576-18.614,13.715
								s15.301,9.314,21.498,8.512C166.686,345.593,169.696,340.146,168.901,334.009z"/>
						</g>
					</g>
					<g>
						<g>
							<path fill="#F4E028" d="M150.668,336.181c-0.358-2.769-1.437-4.912-5.519-4.383c-4.082,0.531-9.471,4.631-9.257,6.299
								c0.228,1.74,6.477,4.256,10.556,3.727C150.532,341.294,151.026,338.95,150.668,336.181z"/>
						</g>
					</g>
				</g>
				<g>
					<g>
						<g>
							<path fill="#FFFFFF" d="M156.005,354.597c-3.471-5.748-14.748-14.717-20.047-11.518c-5.298,3.201-2.366,17.758,0.864,23.104
								c4.716,7.809,10.911,8.369,16.21,5.17C158.331,368.151,160.722,362.403,156.005,354.597z"/>
						</g>
					</g>
					<g>
						<g>
							<path fill="#F4E028" d="M145.493,348.722c-2.125-3.521-8.049-6.806-9.488-5.936c-1.502,0.906-1.291,7.641,0.837,11.162
								s4.475,3.033,6.862,1.589C146.095,354.093,147.621,352.244,145.493,348.722z"/>
						</g>
					</g>
				</g>
				<g>
					<g>
						<g>
							<g>
								<path fill="#EFE6CA" d="M113.033,345.821l-0.895,7.403c2.108-2.823,5.752-6.231,9.459-8.486
									C118.73,345.458,115.667,345.821,113.033,345.821z"/>
							</g>
						</g>
						<g>
							<g>
								<path fill="#FFFFFF" d="M130.974,342.897c-0.914-0.531-2.007-0.686-3.2-0.563c-1.717,1.025-3.883,1.828-6.176,2.403
									c-3.707,2.255-7.351,5.663-9.459,8.486l-1.769,14.626c0.98,1.436,2.351,2.64,3.996,3.597
									c5.35,3.112,11.539,2.449,16.125-5.435C133.866,360.208,136.324,346.011,130.974,342.897z"/>
							</g>
						</g>
						<g>
							<g>
								<path fill="#FFFFFF" d="M115.666,324.058l-2.633,21.764c2.634,0,5.697-0.363,8.564-1.083
									c2.133-1.298,4.284-2.206,6.176-2.403c1.965-1.172,3.343-2.635,3.644-4.381
									C132.352,332.532,122.247,326.153,115.666,324.058z"/>
							</g>
						</g>
						<g>
							<g>
								<path fill="#FFFFFF" d="M121.598,344.738c2.293-0.575,4.459-1.378,6.176-2.403
									C125.882,342.532,123.73,343.44,121.598,344.738z"/>
							</g>
						</g>
					</g>
					<g>
						<g>
							<path fill="#F4E028" d="M122.624,331.507c-4.055-0.699-5.222,1.395-5.695,4.146c-0.473,2.75-0.076,5.117,3.979,5.816
								c4.055,0.697,10.415-1.63,10.701-3.289C131.909,336.454,126.678,332.206,122.624,331.507z"/>
						</g>
					</g>
				</g>
				<g>
					<g>

							<ellipse transform="matrix(0.0021 -1 1 0.0021 -206.7428 473.3474)" fill="#F4E028" cx="133.795" cy="340.26" rx="6.106" ry="6.417"/>
					</g>
				</g>
				<g>
					<g>
						<path fill="#F4E028" d="M131.253,342.797c-1.515-0.882-7.32,2.536-9.39,6.091c-2.069,3.561-0.513,5.381,1.901,6.785
							c2.41,1.404,4.768,1.857,6.836-1.701C132.67,350.416,132.709,343.642,131.253,342.797z"/>
					</g>
				</g>
				<g>
					<g>
						<path fill="#E2CB23" d="M133.803,336.507c-2.335-0.004-4.235,1.673-4.241,3.744c-0.004,2.072,1.889,3.758,4.225,3.762
							c2.342,0.005,4.24-1.672,4.246-3.744C138.034,338.197,136.142,336.513,133.803,336.507z"/>
					</g>
				</g>
			</g>
			<g>
				<g>
					<g>
						<g>
							<path fill="#FFFFFF" d="M305.758,258.409c-5.303-0.011-9.609,3.138-9.624,10.954c-0.013,5.757,4.263,17.341,9.568,17.352
								c5.305,0.011,9.626-11.958,9.637-17.313C315.355,261.586,311.064,258.419,305.758,258.409z"/>
						</g>
					</g>
					<g>
						<g>
							<path fill="#F4E028" d="M305.564,274.144c-2.394-0.006-4.335,0.671-4.342,4.199c-0.007,3.524,2.873,8.564,4.314,8.567
								c1.505,0.003,4.341-5.024,4.349-8.55C309.894,274.831,307.956,274.147,305.564,274.144z"/>
						</g>
					</g>
				</g>
				<g>
					<g>
						<g>
							<path fill="#FFFFFF" d="M335.362,284.778c-0.683-5.261-4.369-9.117-12.119-8.112c-5.709,0.741-16.636,6.493-15.953,11.754
								s13.113,7.982,18.424,7.294C333.464,294.707,336.044,290.038,335.362,284.778z"/>
						</g>
					</g>
					<g>
						<g>
							<path fill="#F4E028" d="M319.736,286.64c-0.308-2.372-1.231-4.209-4.729-3.755s-8.117,3.968-7.934,5.397
								c0.195,1.491,5.551,3.647,9.047,3.193C319.62,291.022,320.044,289.014,319.736,286.64z"/>
						</g>
					</g>
				</g>
				<g>
					<g>
						<g>
							<path fill="#FFFFFF" d="M324.311,302.424c-2.976-4.927-12.64-12.613-17.181-9.872c-4.541,2.744-2.028,15.219,0.74,19.801
								c4.042,6.692,9.352,7.172,13.893,4.431C326.304,314.04,328.353,309.114,324.311,302.424z"/>
						</g>
					</g>
					<g>
						<g>
							<path fill="#F4E028" d="M315.302,297.388c-1.822-3.018-6.898-5.832-8.133-5.087c-1.286,0.777-1.105,6.548,0.718,9.566
								s3.835,2.6,5.882,1.362C315.817,301.992,317.125,300.407,315.302,297.388z"/>
						</g>
					</g>
				</g>
				<g>
					<g>
						<g>
							<path fill="#FFFFFF" d="M302.857,292.397c-4.585-2.668-14.322,5.523-17.016,10.152c-3.931,6.758-1.803,11.647,2.782,14.314
								c4.586,2.668,9.89,2.1,13.82-4.656C305.337,307.231,307.443,295.064,302.857,292.397z"/>
						</g>
					</g>
					<g>
						<g>
							<path fill="#F4E028" d="M303.097,292.311c-1.298-0.756-6.273,2.174-8.047,5.221c-1.773,3.05-0.439,4.611,1.629,5.814
								c2.066,1.203,4.086,1.592,5.859-1.458C304.312,298.841,304.345,293.035,303.097,292.311z"/>
						</g>
					</g>
				</g>
				<g>
					<g>
						<g>
							<path fill="#FFFFFF" d="M287.787,275.755c-7.704-1.327-11.545,2.373-12.444,7.602c-0.9,5.227,1.48,9.998,9.186,11.326
								c5.67,0.977,17.809-1.294,18.709-6.521C304.138,282.933,293.064,276.664,287.787,275.755z"/>
						</g>
					</g>
					<g>
						<g>
							<path fill="#F4E028" d="M295.702,282.635c-3.476-0.599-4.476,1.196-4.881,3.554c-0.406,2.357-0.065,4.385,3.41,4.984
								c3.475,0.598,8.926-1.396,9.171-2.818C303.659,286.874,299.176,283.233,295.702,282.635z"/>
						</g>
					</g>
				</g>
				<g>
					<g>

							<ellipse transform="matrix(0.0021 -1 1 0.0021 14.5131 594.8154)" fill="#F4E028" cx="305.275" cy="290.136" rx="5.233" ry="5.499"/>
					</g>
				</g>
				<g>
					<g>

							<ellipse transform="matrix(0.0021 -1 1 0.0021 14.4904 594.7947)" fill="#E2CB23" cx="305.275" cy="290.137" rx="3.216" ry="3.628"/>
					</g>
				</g>
			</g>
			<g>
				<g>
					<g>
						<g>
							<path fill="#FFFFFF" d="M304.268,177.802c-3.984-0.008-7.219,2.357-7.23,8.229c-0.01,4.324,3.203,13.027,7.189,13.035
								c3.985,0.008,7.23-8.983,7.238-13.006C311.479,180.188,308.254,177.81,304.268,177.802z"/>
						</g>
					</g>
					<g>
						<g>
							<path fill="#F4E028" d="M304.123,189.622c-1.799-0.004-3.258,0.504-3.263,3.154c-0.005,2.648,2.159,6.436,3.241,6.438
								c1.131,0.002,3.262-3.775,3.268-6.424C307.375,190.14,305.919,189.625,304.123,189.622z"/>
						</g>
					</g>
				</g>
				<g>
					<g>
						<g>
							<path fill="#FFFFFF" d="M326.508,197.612c-0.512-3.953-3.281-6.85-9.104-6.095c-4.289,0.556-12.498,4.878-11.985,8.83
								s9.852,5.997,13.841,5.479C325.082,205.071,327.021,201.563,326.508,197.612z"/>
						</g>
					</g>
					<g>
						<g>
							<path fill="#F4E028" d="M314.77,199.011c-0.231-1.783-0.926-3.162-3.553-2.821c-2.629,0.341-6.099,2.981-5.961,4.056
								c0.146,1.119,4.17,2.739,6.797,2.398C314.682,202.303,315,200.794,314.77,199.011z"/>
						</g>
					</g>
				</g>
				<g>
					<g>
						<g>
							<path fill="#FFFFFF" d="M318.205,210.868c-2.234-3.701-9.495-9.476-12.906-7.416c-3.412,2.061-1.524,11.434,0.556,14.875
								c3.036,5.027,7.025,5.389,10.437,3.328C319.703,219.595,321.242,215.895,318.205,210.868z"/>
						</g>
					</g>
					<g>
						<g>
							<path fill="#F4E028" d="M311.438,207.085c-1.369-2.268-5.182-4.382-6.109-3.822c-0.967,0.584-0.831,4.92,0.539,7.188
								c1.369,2.268,2.881,1.953,4.418,1.023C311.825,210.544,312.808,209.354,311.438,207.085z"/>
						</g>
					</g>
				</g>
				<g>
					<g>
						<g>
							<path fill="#FFFFFF" d="M302.089,203.336c-3.444-2.004-10.76,4.149-12.783,7.627c-2.953,5.077-1.354,8.75,2.09,10.755
								c3.445,2.004,7.43,1.576,10.383-3.5C303.951,214.48,305.534,205.339,302.089,203.336z"/>
						</g>
					</g>
					<g>
						<g>
							<path fill="#F4E028" d="M302.269,203.271c-0.975-0.568-4.713,1.633-6.046,3.922c-1.332,2.292-0.33,3.465,1.225,4.368
								c1.553,0.904,3.069,1.196,4.401-1.095C303.182,208.176,303.206,203.815,302.269,203.271z"/>
						</g>
					</g>
				</g>
				<g>
					<g>
						<g>
							<path fill="#FFFFFF" d="M290.768,190.833c-5.789-0.997-8.674,1.782-9.349,5.711c-0.677,3.926,1.111,7.511,6.899,8.509
								c4.26,0.733,13.379-0.972,14.056-4.899S294.731,191.516,290.768,190.833z"/>
						</g>
					</g>
					<g>
						<g>
							<path fill="#F4E028" d="M296.713,196.001c-2.611-0.449-3.361,0.898-3.666,2.67c-0.306,1.771-0.05,3.295,2.562,3.745
								c2.61,0.448,6.706-1.05,6.89-2.117C302.691,199.187,299.322,196.452,296.713,196.001z"/>
						</g>
					</g>
				</g>
				<g>
					<g>

							<ellipse transform="matrix(0.0021 -1 1 0.0021 101.6263 505.1156)" fill="#F4E028" cx="303.905" cy="201.637" rx="3.931" ry="4.131"/>
					</g>
				</g>
				<g>
					<g>
						<ellipse fill="#E2CB23" cx="303.905" cy="201.638" rx="2.726" ry="2.416"/>
					</g>
				</g>
			</g>
		</g>
	</g>
</g>
</svg>
