<?xml version="1.0" encoding="utf-8"?>
<!-- Generator: Adobe Illustrator 16.0.0, SVG Export Plug-In . SVG Version: 6.00 Build 0)  -->
<!DOCTYPE svg PUBLIC "-//W3C//DTD SVG 1.1//EN" "http://www.w3.org/Graphics/SVG/1.1/DTD/svg11.dtd">
<svg version="1.1" id="Layer_1" xmlns="http://www.w3.org/2000/svg" xmlns:xlink="http://www.w3.org/1999/xlink" x="0px" y="0px"
	 width="100px" height="100px" viewBox="0 0 512 512" enable-background="new 0 0 512 512" xml:space="preserve">
<g>
	<g>
		<g>
			<path fill="#A3D5E0" d="M261.231,7.909C124.212,7.909,13.138,118.972,13.138,256c0,137.012,111.074,248.091,248.094,248.091
				c137.011,0,248.087-111.079,248.087-248.091C509.318,118.972,398.242,7.909,261.231,7.909z"/>
		</g>
	</g>
	<g>
		<g>
			<g>
				<path fill="#966956" d="M435.03,368.354l-1.78-19.595l-30.286,11.579l-62.352,8.908l-40.974,1.782l-57.898-4.455l-117.577-5.345
					l-0.891,26.722c12.47,10.689,49.881,6.236,49.881,6.236s165.659,0.682,185.273-0.891c24.05-1.931,43.646-5.641,59.234-13.064
					C436,371.5,435.03,368.354,435.03,368.354z"/>
			</g>
		</g>
		<g>
			<g>
				<path fill="#47537F" d="M427.014,343.268l-148.752,17.962l-149.05-5.64c-4.899,4.751-2.376,10.984-2.376,10.984
					c20.488,2.673,79.275,3.563,79.275,3.563c16.034,0,73.041,4.453,73.041,4.453c62.796,5.642,98.871-2.373,98.871-2.373
					c49.882-8.909,56.117-19.005,56.117-19.005C435.03,343.415,427.014,343.268,427.014,343.268z"/>
			</g>
		</g>
		<g>
			<g>
				<path fill="#363E63" d="M410.981,320.257l-135.096-50.178c0,0-8.609-2.672-9.203-6.83l-4.454-140.735l-67.174,2.106
					l-78.016-2.106c0,0,0.891,61.46,9.798,89.963c0,0,13.297,52.554,7.953,73.931c0,0-8.843,60.57-4.39,69.479
					c0,0,49.436,2.969,73.931,4.305s120.249,14.4,196.852-4.305c0,0,16.924-3.563,27.613-11.58
					C428.795,344.306,428.795,326.491,410.981,320.257z"/>
			</g>
		</g>
		<g>
			<g>
				<path fill="#47537F" d="M205.266,308.905c2.405-19.456-5.925-176.272-6.286-183.02c-0.103-1.963-1.801-2.279-3.747-2.161
					c-1.965,0.103-3.474,0.576-3.369,2.541c3.074,57.582,8.341,169.746,6.279,182.123c-0.068,0.409-0.064,0.824,0.01,1.231
					c0.061,0.332,6.075,33.439,2.671,52.161c-0.353,1.935,0.933,3.791,2.868,4.142c0.216,0.039,0.431,0.059,0.642,0.059
					c1.688,0,3.188-1.206,3.501-2.928C211.258,344.233,206.105,313.639,205.266,308.905z"/>
			</g>
		</g>
		<g>
			<g>
				<path fill="#47537F" d="M269.846,264.879c-1.764-0.869-3.712-1.105-4.58,0.66c-0.214,0.434-21.815,43.389-61.752,42.544h-0.075
					c-1.934,0-3.521,1.548-3.561,3.488c-0.042,1.968,1.521,3.596,3.489,3.639c0.45,0.008,0.893,0.014,1.339,0.014
					c43.63,0,66.017-44.627,66.958-46.547C272.528,266.91,271.611,265.744,269.846,264.879z"/>
			</g>
		</g>
	</g>
</g>
</svg>
