<?xml version="1.0" encoding="utf-8"?>
<!-- Generator: Adobe Illustrator 16.0.0, SVG Export Plug-In . SVG Version: 6.00 Build 0)  -->
<!DOCTYPE svg PUBLIC "-//W3C//DTD SVG 1.1//EN" "http://www.w3.org/Graphics/SVG/1.1/DTD/svg11.dtd">
<svg version="1.1" id="Layer_1" xmlns="http://www.w3.org/2000/svg" xmlns:xlink="http://www.w3.org/1999/xlink" x="0px" y="0px"
	 width="512px" height="512px" viewBox="0 0 512 512" enable-background="new 0 0 512 512" xml:space="preserve">
<g display="none">
	<g display="inline">
		<path fill="#337180" d="M260.697-5.991c-137.02,0-248.094,111.063-248.094,248.092c0,137.012,111.074,248.09,248.094,248.09
			c137.012,0,248.088-111.078,248.088-248.09C508.785,105.071,397.709-5.991,260.697-5.991z"/>
	</g>
</g>
<g>
	<g>
		<g>
			<path fill="#29C183" d="M257.023,9.65C120.004,9.65,8.93,120.713,8.93,257.742c0,137.012,111.074,248.09,248.094,248.09
				c137.012,0,248.088-111.078,248.088-248.09C505.111,120.713,394.035,9.65,257.023,9.65z"/>
		</g>
	</g>
	<g>
		<g>
			<g>
				<path fill="#9ACCCA" d="M256.452,120.727c-33.779,0-54.947-20.814-54.986-20.854c0.079,0.183,39.191,89.854,54.986,89.854
					c15.793,0,54.907-89.671,54.986-89.854C311.399,99.912,290.229,120.727,256.452,120.727z"/>
			</g>
		</g>
		<g>
			<g>
				<path fill="#FFFFFF" d="M254.733,80.783c-42,0-60.25,5.25-60.25,5.25v42.75h122v-42.75
					C316.483,86.033,296.733,80.783,254.733,80.783z"/>
			</g>
		</g>
		<g>
			<g>
				<path fill="#9ACCCA" d="M254.733,108.783c-42,0-60.25,5.25-60.25,5.25v42.75h122v-42.75
					C316.483,114.033,296.733,108.783,254.733,108.783z"/>
			</g>
		</g>
		<g>
			<g>
				<path fill="#BAE2E1" d="M415.237,250.06c-4.291-26-16.736-60.063-46.736-119.312c-8.449-16.688-57.061-30.879-57.061-30.879
					l-0.002,0.004l0.002-0.002c0,0-36.588,98.327-55.272,98.327s-54.704-98.327-54.704-98.327l0.002,0.002l-0.002-0.004
					c0,0-48.811,14.1-57.062,30.879c-27.234,55.385-42.445,93.312-46.735,119.312c-4.291,26,33.709,25.333,37.386,10
					s30.692-54.788,30.692-54.788l12.882,101.455l-16.382,111c0,13.5,17.218,16.846,38.465,16.846h111.483
					c21.247,0,38.466-3.346,38.466-16.846l-16.383-111l12.883-101.455c0,0,27.015,39.455,30.691,54.788
					C381.528,275.393,419.528,276.06,415.237,250.06z"/>
			</g>
		</g>
		<g>
			<g>
				<g>
					<path fill="#F9F9F9" d="M414.631,246.648c0,0-37.714,1.896-40.26,4.185c0,0,3.622,15.69,5.613,23.257
						c0,0,11.21,15.662,43.019,4.867C423.003,278.957,418.91,247.95,414.631,246.648z"/>
				</g>
			</g>
			<g>
				<g>
					<g>
						<circle fill="#D3D3D3" cx="386.646" cy="270.348" r="1.971"/>
					</g>
				</g>
				<g>
					<g>
						<circle fill="#D3D3D3" cx="384.942" cy="262.932" r="1.971"/>
					</g>
				</g>
				<g>
					<g>
						<circle fill="#D3D3D3" cx="383.292" cy="255.793" r="1.972"/>
					</g>
				</g>
			</g>
			<g>
				<g>
					<path fill="#FFFFFF" d="M309.534,99.869l-0.002,0.004c-0.069,0.16-60.74,99.494-60.74,99.494V434.7h13.111
						c0,0,0-225.667,0-230.947s44.891-69.223,59.303-100.065C314.349,101.26,309.534,99.869,309.534,99.869z"/>
				</g>
			</g>
			<g>
				<g>
					<path fill="#F9F9F9" d="M198.983,100.783c0,0-2.334,0.477-9.191,2.904c14.412,30.843,59.303,94.785,59.303,100.065
						s0,230.947,0,230.947h13.111V199.367C262.206,199.367,199.053,100.943,198.983,100.783z"/>
				</g>
			</g>
			<g>
				<g>
					<path fill="#FFFFFF" d="M202.233,99.283l-4,0.75c0,0-3.084,1.227-9.941,3.654c14.412,30.843,59.303,94.785,59.303,100.065
						s0,230.947,0,230.947h13.111V199.367C260.706,199.367,202.303,99.443,202.233,99.283z"/>
				</g>
			</g>
			<g>
				<g>
					<path fill="#FFFFFF" d="M201.464,99.869l-6.98-13.836c0,0-11,23-30.5,40.5l37-1l24.25,13.25L201.464,99.869z"/>
				</g>
			</g>
			<g>
				<g>
					<path fill="#FFFFFF" d="M316.483,86.033l-6.98,13.836l-23.77,38.914l24.25-13.25l37,1
						C327.483,109.033,316.483,86.033,316.483,86.033z"/>
				</g>
			</g>
			<g>
				<g>
					<g>
						<g>
							<circle fill="#B5C9C8" cx="254.026" cy="199.658" r="4.167"/>
						</g>
					</g>
					<g>
						<g>
							<g>
								<g>
									<circle fill="#E0E0E0" cx="252.324" cy="198.135" r="0.922"/>
								</g>
							</g>
							<g>
								<g>
									<circle fill="#E0E0E0" cx="255.729" cy="198.135" r="0.922"/>
								</g>
							</g>
						</g>
						<g>
							<g>
								<g>
									<circle fill="#E0E0E0" cx="252.324" cy="201.02" r="0.922"/>
								</g>
							</g>
							<g>
								<g>
									<circle fill="#E0E0E0" cx="255.729" cy="201.02" r="0.922"/>
								</g>
							</g>
						</g>
					</g>
				</g>
				<g>
					<g>
						<g>
							<circle fill="#B5C9C8" cx="254.026" cy="244.365" r="4.166"/>
						</g>
					</g>
					<g>
						<g>
							<g>
								<g>
									<circle fill="#E0E0E0" cx="252.324" cy="242.843" r="0.921"/>
								</g>
							</g>
							<g>
								<g>
									<circle fill="#E0E0E0" cx="255.729" cy="242.843" r="0.921"/>
								</g>
							</g>
						</g>
						<g>
							<g>
								<g>
									<circle fill="#E0E0E0" cx="252.324" cy="245.728" r="0.921"/>
								</g>
							</g>
							<g>
								<g>
									<circle fill="#E0E0E0" cx="255.729" cy="245.728" r="0.921"/>
								</g>
							</g>
						</g>
					</g>
				</g>
				<g>
					<g>
						<g>
							<circle fill="#B5C9C8" cx="254.026" cy="289.073" r="4.167"/>
						</g>
					</g>
					<g>
						<g>
							<g>
								<g>
									<circle fill="#E0E0E0" cx="252.324" cy="287.551" r="0.922"/>
								</g>
							</g>
							<g>
								<g>
									<circle fill="#E0E0E0" cx="255.729" cy="287.551" r="0.922"/>
								</g>
							</g>
						</g>
						<g>
							<g>
								<g>
									<circle fill="#E0E0E0" cx="252.324" cy="290.436" r="0.922"/>
								</g>
							</g>
							<g>
								<g>
									<circle fill="#E0E0E0" cx="255.729" cy="290.436" r="0.922"/>
								</g>
							</g>
						</g>
					</g>
				</g>
				<g>
					<g>
						<g>
							<circle fill="#B5C9C8" cx="254.026" cy="333.781" r="4.166"/>
						</g>
					</g>
					<g>
						<g>
							<g>
								<g>
									<circle fill="#E0E0E0" cx="252.324" cy="332.259" r="0.921"/>
								</g>
							</g>
							<g>
								<g>
									<circle fill="#E0E0E0" cx="255.729" cy="332.259" r="0.921"/>
								</g>
							</g>
						</g>
						<g>
							<g>
								<g>
									<circle fill="#E0E0E0" cx="252.324" cy="335.143" r="0.921"/>
								</g>
							</g>
							<g>
								<g>
									<circle fill="#E0E0E0" cx="255.729" cy="335.143" r="0.921"/>
								</g>
							</g>
						</g>
					</g>
				</g>
				<g>
					<g>
						<g>
							<circle fill="#B5C9C8" cx="254.026" cy="378.489" r="4.167"/>
						</g>
					</g>
					<g>
						<g>
							<g>
								<g>
									<circle fill="#E0E0E0" cx="252.324" cy="376.967" r="0.922"/>
								</g>
							</g>
							<g>
								<g>
									<circle fill="#E0E0E0" cx="255.729" cy="376.967" r="0.922"/>
								</g>
							</g>
						</g>
						<g>
							<g>
								<g>
									<circle fill="#E0E0E0" cx="252.324" cy="379.852" r="0.922"/>
								</g>
							</g>
							<g>
								<g>
									<circle fill="#E0E0E0" cx="255.729" cy="379.852" r="0.922"/>
								</g>
							</g>
						</g>
					</g>
				</g>
				<g>
					<g>
						<g>
							<circle fill="#B5C9C8" cx="254.026" cy="423.197" r="4.166"/>
						</g>
					</g>
					<g>
						<g>
							<g>
								<g>
									<circle fill="#E0E0E0" cx="252.324" cy="421.675" r="0.921"/>
								</g>
							</g>
							<g>
								<g>
									<circle fill="#E0E0E0" cx="255.729" cy="421.675" r="0.921"/>
								</g>
							</g>
						</g>
						<g>
							<g>
								<g>
									<circle fill="#E0E0E0" cx="252.324" cy="424.559" r="0.921"/>
								</g>
							</g>
							<g>
								<g>
									<circle fill="#E0E0E0" cx="255.729" cy="424.559" r="0.921"/>
								</g>
							</g>
						</g>
					</g>
				</g>
			</g>
		</g>
		<g>
			<g>
				<path fill="#BAC6C6" d="M166.069,186.727c-0.25-7.75-3.334-26-3.334-26s-1,29,2.857,44.545
					C165.593,205.271,166.319,194.477,166.069,186.727z"/>
			</g>
		</g>
		<g>
			<g>
				<path fill="#BAC6C6" d="M350.168,160.727c0,0-3.083,18.25-3.333,26s0.477,18.545,0.477,18.545
					C351.168,189.727,350.168,160.727,350.168,160.727z"/>
			</g>
		</g>
		<g>
			<g>
				<path fill="#F9F9F9" d="M99.409,244.88c-4.279,1.302-8.372,32.309-8.372,32.309c31.809,10.795,43.019-4.867,43.019-4.867
					c1.991-7.566,5.613-23.257,5.613-23.257C137.123,246.775,99.409,244.88,99.409,244.88z"/>
			</g>
		</g>
		<g>
			<g>
				<g>
					<circle fill="#D3D3D3" cx="127.395" cy="268.58" r="1.971"/>
				</g>
			</g>
			<g>
				<g>
					<circle fill="#D3D3D3" cx="129.098" cy="261.164" r="1.971"/>
				</g>
			</g>
			<g>
				<g>
					<circle fill="#D3D3D3" cx="130.748" cy="254.024" r="1.972"/>
				</g>
			</g>
		</g>
	</g>
</g>
</svg>
