<svg width="60" height="53.753" xmlns="http://www.w3.org/2000/svg">
 <g>
  <title>Layer 1</title>
  <g id="svg_1">
   <path fill="#fcf9f9" id="svg_2" d="m42.062,10.074v-7.394c0,-1.463 -1.186001,-2.649 -2.647999,-2.649h-20.439001c-1.505001,0 -2.726,1.22 -2.726,2.726v7.317h-10.645c-2.779,0 -5.031,2.252 -5.031,5.030999v33.803001c0,2.778 2.252,5.030998 5.031,5.030998h48.792c2.778,0 5.030998,-2.252998 5.030998,-5.030998v-33.803001c0,-2.778999 -2.252998,-5.030999 -5.030998,-5.030999h-12.334l0,0zm-23.767,-5.692c0,-1.273 1.032,-2.306 2.306,-2.306h17.108999c1.273003,0 2.306,1.032 2.306,2.306v5.691h-1.715v-4.295c0,-1.13 -0.916,-2.046 -2.045998,-2.046h-14.199001c-1.129999,0 -2.046,0.916 -2.046,2.046v4.295h-1.715v-5.691l0,0zm3.761,5.143v-3.747h14.198002v3.747h-14.198002l0,0zm24.522999,3.618v37.726999h-33.373999v-37.726999h33.373999l0,0zm-42.937999,16.011l2.938,-1.418999l-0.451,5.977001l-2.487,-1.454002v-3.104l0,0zm0,5.472l4.281,2.504002l0.963,-12.782001l-5.245,2.533001v-10.242001c0,-1.931 1.565,-3.497 3.497,-3.497h2.998v37.727999h-1.463c-2.779,0 -5.031,-2.252998 -5.031,-5.030998v-11.213001l0,0zm46.006999,16.243999v-37.726999h1.678001c2.778,0 5.030998,2.252001 5.030998,5.031v15.709999h-4.918999v7.75h4.918999v4.204002c0,2.778 -2.252998,5.030998 -5.030998,5.030998h-1.678001l0,0.000999zm6.709,-11.281998h-2.872997v-3.658001h2.872997v3.658001l0,0z"/>
   <path fill="#fcf9f9" id="svg_3" d="m20.92,46.951c0.41,0.272999 0.782999,0.521 1.066999,0.743h0.099001c0.284,-0.223 0.657,-0.470001 1.066999,-0.743c2.011,-1.338001 5.378,-3.578999 3.697001,-6.646c-0.704,-1.285 -1.631001,-1.652 -2.285,-1.734001c-0.99,-0.124001 -1.892,0.318001 -2.530001,0.760002c-0.639999,-0.441002 -1.542,-0.884003 -2.528,-0.760002c-0.653,0.082001 -1.58,0.449001 -2.285,1.734001c-1.68,3.067001 1.687,5.307999 3.698,6.646zm-1.902,-5.663002c0.231001,-0.421997 0.481001,-0.651997 0.743,-0.686996c0.561001,-0.069 1.388,0.570999 1.696001,0.896l0.156,0.157997c0.112,0.115002 0.265999,0.179001 0.425999,0.179001s0.313,-0.064999 0.425001,-0.18l0.156,-0.16c0.289999,-0.311001 1.108999,-0.956001 1.689999,-0.895c0.263,0.033001 0.514,0.264999 0.746,0.688c0.599001,1.092003 -0.367001,2.121002 -2.427,3.547001c-0.355999,0.246002 -0.829,0.246002 -1.184999,0c-2.059,-1.424999 -3.025,-2.454998 -2.426001,-3.546001z"/>
   <path fill="#fcf9f9" id="svg_4" d="m41.629002,19.848l-9.529003,-5.905999l-4.131998,6.666999l9.530001,5.905001l4.131001,-6.666zm-10.845001,0.1l1.977001,-3.188l6.050999,3.75l-1.976002,3.188l-6.051998,-3.75z"/>
  </g>
 </g>
</svg>