<?xml version="1.0" encoding="utf-8"?>
<!-- Generator: Adobe Illustrator 16.0.0, SVG Export Plug-In . SVG Version: 6.00 Build 0)  -->
<!DOCTYPE svg PUBLIC "-//W3C//DTD SVG 1.1//EN" "http://www.w3.org/Graphics/SVG/1.1/DTD/svg11.dtd">
<svg version="1.1" id="Layer_1" xmlns="http://www.w3.org/2000/svg" xmlns:xlink="http://www.w3.org/1999/xlink" x="0px" y="0px"
	 width="100px" height="100px" viewBox="0 0 512 512" enable-background="new 0 0 512 512" xml:space="preserve">
<g>
	<g>
		<g>
			<path fill="#29C183" d="M262.003,7.909C124.983,7.909,13.909,118.972,13.909,256c0,137.012,111.074,248.091,248.094,248.091
				c137.012,0,248.088-111.079,248.088-248.091C510.091,118.972,399.015,7.909,262.003,7.909z"/>
		</g>
	</g>
	<g>
		<g>
			<g>
				<path fill="#146F84" d="M411.181,305.784l-59.11,16.255c0,0,18.472,1.478,39.9,10.345c0,0,34.726,14.039,78.32,3.694
					C470.291,336.078,445.908,313.173,411.181,305.784z"/>
			</g>
		</g>
		<g>
			<g>
				<path fill="#1C7F99" d="M233.111,115.921v-0.028c-0.358-0.003-0.697,0.012-1.053,0.009c-0.188,0-0.371-0.009-0.561-0.009v0.015
					C64.07,115.68,85.336,306.523,85.336,306.523c42.032,32.692,130.439,3.938,147.205-1.951
					c114.357-51.248,163.805-23.095,163.805-23.095C391.973,229.962,367.111,116.833,233.111,115.921z"/>
			</g>
		</g>
		<g>
			<g>
				<path fill="#166B7F" d="M222.204,121.111l-3.802-4.525c-32.675,27.434-51.199,70.552-53.574,124.694
					c-1.782,40.684,6.221,73.747,6.304,74.077l5.737-1.413C176.556,312.662,146.172,184.95,222.204,121.111z"/>
			</g>
		</g>
		<g>
			<g>
				<path fill="#166B7F" d="M301.575,142.989c-28.639-22.216-55.907-27.799-57.054-28.025l-1.15,5.798
					c0.271,0.054,27.247,5.614,54.796,27.065c25.351,19.738,56.688,59.085,60.81,126.546l5.9-0.36
					C360.61,204.206,327.984,163.476,301.575,142.989z"/>
			</g>
		</g>
		<g>
			<g>
				<path fill="#1F8AA3" d="M321.037,275.49c-36.943,6.65-179.547,46.549-179.547,46.549s36.943,59.11,107.876,59.85
					c0,0,25.122,3.694,67.977-33.987c0,0,85.587-61.019,143.286-19.705l-65.704-50.489
					C394.925,277.707,357.98,268.841,321.037,275.49z M460.629,328.196l4.489,3.449C463.645,330.417,462.144,329.28,460.629,328.196
					z"/>
			</g>
		</g>
		<g>
			<g>
				<path fill="#1B788E" d="M230.155,97.421c-10.202,0-18.472,8.104-18.472,18.103c0,9.997,36.943,9.997,36.943,0
					C248.627,105.525,240.356,97.421,230.155,97.421z"/>
			</g>
		</g>
	</g>
</g>
</svg>
