<?xml version="1.0" encoding="utf-8"?>
<!-- Generator: Adobe Illustrator 16.0.0, SVG Export Plug-In . SVG Version: 6.00 Build 0)  -->
<!DOCTYPE svg PUBLIC "-//W3C//DTD SVG 1.1//EN" "http://www.w3.org/Graphics/SVG/1.1/DTD/svg11.dtd">
<svg version="1.1" id="Layer_1" xmlns="http://www.w3.org/2000/svg" xmlns:xlink="http://www.w3.org/1999/xlink" x="0px" y="0px"
	 width="100px" height="100px" viewBox="0 0 512 512" enable-background="new 0 0 512 512" xml:space="preserve">
<g>
	<g>
		<g>
			<g>
				<path fill="#EDC92F" d="M256.003,7.909C118.984,7.909,7.91,118.972,7.91,256c0,137.012,111.074,248.091,248.094,248.091
					c137.011,0,248.087-111.079,248.087-248.091C504.09,118.972,393.014,7.909,256.003,7.909z"/>
			</g>
		</g>
		<g>
			<g>
				<g>
					<path fill="#3E8789" d="M309.913,77.146c0,0-21.178,20.855-54.988,20.855s-54.988-20.855-54.988-20.855
						s-3.962,98.327,54.705,98.327S309.913,77.146,309.913,77.146z"/>
				</g>
			</g>
			<g>
				<g>
					<path fill="#46989E" d="M413.71,227.333c-4.291-26-16.736-60.063-46.736-119.311c-8.449-16.688-57.061-30.879-57.061-30.879
						S270.734,167,254.924,167s-54.988-89.857-54.988-89.857s-48.81,14.1-57.061,30.879
						c-27.234,55.385-42.445,93.311-46.736,119.311S99.542,383,99.542,383s7.516,0.25,16.016-1.5s11.984-6.5,11.984-6.5
						s2.307-122.333,5.984-137.667c3.677-15.333,30.692-54.788,30.692-54.788L177.1,284l-16.382,111
						c0,13.5,17.218,16.846,38.465,16.846h111.483c21.247,0,38.465-3.346,38.465-16.846L332.75,284l12.882-101.454
						c0,0,27.015,39.455,30.692,54.788C380,252.667,382.307,375,382.307,375s2.75,3.5,11.25,6.5s16.75,1.5,16.75,1.5
						S418,253.333,413.71,227.333z"/>
				</g>
			</g>
			<g>
				<g>
					<path fill="#3E8789" d="M164.542,164c-0.25-7.75-3.333-26-3.333-26s-1,29,2.857,44.546
						C164.065,182.546,164.792,171.75,164.542,164z"/>
				</g>
			</g>
			<g>
				<g>
					<path fill="#3E8789" d="M348.641,138c0,0-3.083,18.25-3.333,26s0.477,18.546,0.477,18.546C349.641,167,348.641,138,348.641,138
						z"/>
				</g>
			</g>
		</g>
	</g>
	<g>
		<g>
			<path fill="#3E8789" d="M256.281,165.5h-3.167c0,0-1.365,17.375-1.365,26.667s2.404,39.083,2.404,39.083h1.422
				c0,0,2.404-30,2.404-39.083S256.281,165.5,256.281,165.5z"/>
		</g>
	</g>
	<g>
		<g>
			<g>
				<g>
					<circle fill="#52ADAF" cx="254.781" cy="196.5" r="4.311"/>
				</g>
			</g>
			<g>
				<g>
					<path fill="#6FC1C1" d="M254.933,192.712c-2.092,0-2.092,7.576,0,7.576c2.093,0,3.789-1.696,3.789-3.789
						C258.722,194.408,257.026,192.712,254.933,192.712z"/>
				</g>
			</g>
		</g>
		<g>
			<g>
				<g>
					<circle fill="#52ADAF" cx="254.781" cy="181.422" r="4.311"/>
				</g>
			</g>
			<g>
				<g>
					<path fill="#6FC1C1" d="M254.933,177.633c-2.092,0-2.092,7.576,0,7.576c2.093,0,3.789-1.696,3.789-3.788
						C258.722,179.33,257.026,177.633,254.933,177.633z"/>
				</g>
			</g>
		</g>
		<g>
			<g>
				<g>
					<circle fill="#52ADAF" cx="254.781" cy="166.306" r="4.311"/>
				</g>
			</g>
			<g>
				<g>
					<path fill="#6FC1C1" d="M254.933,162.517c-2.092,0-2.092,7.576,0,7.576c2.093,0,3.789-1.696,3.789-3.788
						C258.722,164.213,257.026,162.517,254.933,162.517z"/>
				</g>
			</g>
		</g>
		<g>
			<g>
				<g>
					<circle fill="#52ADAF" cx="254.781" cy="211.195" r="4.311"/>
				</g>
			</g>
			<g>
				<g>
					<path fill="#6FC1C1" d="M254.933,207.407c-2.092,0-2.092,7.576,0,7.576c2.093,0,3.789-1.696,3.789-3.789
						C258.722,209.103,257.026,207.407,254.933,207.407z"/>
				</g>
			</g>
		</g>
		<g>
			<g>
				<g>
					<circle fill="#52ADAF" cx="254.781" cy="226.5" r="4.311"/>
				</g>
			</g>
			<g>
				<g>
					<path fill="#6FC1C1" d="M254.933,222.712c-2.092,0-2.092,7.576,0,7.576c2.093,0,3.789-1.696,3.789-3.789
						C258.722,224.408,257.026,222.712,254.933,222.712z"/>
				</g>
			</g>
		</g>
	</g>
</g>
</svg>
